<?xml version="1.0" encoding="UTF-8" standalone="no"?>
<!-- Created with Inkscape (http://www.inkscape.org/) -->
<svg id="svg2" xmlns:rdf="http://www.w3.org/1999/02/22-rdf-syntax-ns#" xmlns="http://www.w3.org/2000/svg" viewBox="0 0 544.29 106.03" version="1.1" xmlns:cc="http://creativecommons.org/ns#" xmlns:dc="http://purl.org/dc/elements/1.1/">
 <metadata id="metadata7">
  <rdf:RDF>
   <cc:Work rdf:about="">
    <dc:format>image/svg+xml</dc:format>
    <dc:type rdf:resource="http://purl.org/dc/dcmitype/StillImage"/>
    <dc:title/>
   </cc:Work>
  </rdf:RDF>
 </metadata>
 <g id="layer1" transform="translate(-125.30196,-288.67903)">
  <path id="path2990" d="m202.51,311.67-0.35157,0.0703c-0.5157,0.00007-0.96101-0.15227-1.3359-0.45704-0.37508-0.3046-0.79696-0.50382-1.2656-0.59765l-0.0703,0.28125c-0.00008,0.37508,0.11711,0.72664,0.35156,1.0547,0.2343,0.3282,0.49211,0.63289,0.77344,0.91406,0.28117,0.28132,0.53898,0.57429,0.77344,0.8789,0.23429,0.30477,0.35148,0.59774,0.35156,0.87891-0.00008,0.42195-0.26961,0.65633-0.8086,0.70313-0.53914,0.0469-0.94929,0.11726-1.2305,0.21093-0.56258,0.1407-1.0079,0.48055-1.3359,1.0195-0.3282,0.53914-0.71492,1.1251-1.1602,1.7578-0.44538,0.63288-1.0313,1.1954-1.7578,1.6875-0.72664,0.49225-1.7462,0.73835-3.0586,0.73828-1.6407,0.00007-3.2813-0.37493-4.9219-1.125-1.8751-0.89056-3.2344-1.9804-4.0781-3.2695-0.84381-1.289-1.4063-2.6366-1.6875-4.043-0.28131-1.4062-0.44538-2.8007-0.49219-4.1836-0.0469-1.3827-0.211-2.6366-0.49219-3.7617-0.28131-1.1249-0.82037-2.0273-1.6172-2.707-0.79693-0.67959-2.1094-1.0194-3.9375-1.0195-1.6876,0.00009-3.4688,0.19931-5.3438,0.59766-1.875,0.39853-3.5977,1.0548-5.168,1.9688-1.5704,0.91415-2.8711,2.086-3.9023,3.5156-1.0313,1.4298-1.5469,3.1524-1.5469,5.168-0.00004,2.2032,0.0937,3.9024,0.28125,5.0977,0.18746,1.1954,0.5859,2.0626,1.1953,2.6016,0.60933,0.53913,1.5,0.84382,2.6719,0.91406,1.1718,0.0704,2.7422,0.10554,4.7109,0.10547,0.37495,0.00007,0.9023,0.2696,1.582,0.8086,0.67964,0.53913,1.3593,1.1719,2.0391,1.8984,0.67964,0.72663,1.2656,1.4649,1.7578,2.2148,0.49213,0.75006,0.73823,1.3594,0.73828,1.8281-0.00005,1.0782-0.45708,1.9102-1.3711,2.4961-0.91411,0.58599-2.004,1.0196-3.2695,1.3008-1.2657,0.28131-2.5547,0.44537-3.8672,0.49219-1.3126,0.0469-2.3438,0.0704-3.0938,0.0703-0.79692,0.00006-1.4414,0.16412-1.9336,0.49219-0.49222,0.32818-0.8555,0.75005-1.0898,1.2656-0.23441,0.51568-0.38676,1.1016-0.45703,1.7578-0.0703,0.65631-0.10551,1.3126-0.10547,1.9688-0.00004,3.1407,0.17574,6.2696,0.52734,9.3867,0.35153,3.1172,0.52731,6.2696,0.52735,9.457-0.00004,1.8282-0.24614,3.3282-0.73829,4.5-0.49222,1.1719-0.73831,2.1328-0.73828,2.8828-0.00003,0.51565,0.10544,1.0313,0.31641,1.5469,0.2109,0.51565,0.31637,1.0313,0.31641,1.5469-0.00004,1.0313-0.15238,2.0274-0.45704,2.9883-0.30472,0.96095-0.45706,1.957-0.45703,2.9883-0.00003,0.84376,0.14059,1.5586,0.42188,2.1445,0.28121,0.58595,0.60934,1.1484,0.98437,1.6875,0.37497,0.53907,0.72653,1.0664,1.0547,1.582,0.32809,0.51564,0.56246,1.125,0.70313,1.8281,1.2656-0.18749,2.5195-0.44531,3.7617-0.77344,1.2422-0.32812,2.5195-0.49218,3.832-0.49219,0.8437,0.00001,2.0038,0.0469,3.4805,0.14063,1.4765,0.0938,2.9296,0.31641,4.3594,0.66796,1.4296,0.35158,2.6718,0.8672,3.7266,1.5469,1.0546,0.6797,1.582,1.6055,1.582,2.7773-0.00006,0.98438-0.12896,1.9219-0.38672,2.8125-0.25787,0.89063-0.64459,1.7109-1.1602,2.4609-0.51568,0.75-1.1485,1.3711-1.8984,1.8633-0.75005,0.49219-1.6172,0.80859-2.6016,0.94922-1.2657,0.1875-2.5079,0.53906-3.7266,1.0547-1.2188,0.51562-2.461,0.77343-3.7266,0.77344-0.79692-0.00001-1.5586-0.14063-2.2852-0.42188-0.72661-0.28125-1.4766-0.57422-2.25-0.87891-0.77348-0.30469-1.5586-0.59765-2.3555-0.8789-0.79692-0.28125-1.6407-0.42188-2.5312-0.42188-2.1094,0-4.1836,0.0117-6.2227,0.0352-2.0391,0.0234-4.1133,0.1289-6.2226,0.31641-1.1719,0.0937-2.3203,0.29296-3.4453,0.59765s-2.2617,0.60937-3.4102,0.91406-2.3086,0.57422-3.4805,0.8086c-1.1719,0.23437-2.3438,0.35156-3.5156,0.35156-0.51563,0-1.125-0.0937-1.8281-0.28125-0.70313-0.1875-1.418-0.44532-2.1445-0.77344-0.72657-0.32812-1.4063-0.66797-2.0391-1.0195-0.63281-0.35156-1.1602-0.71484-1.582-1.0898l-0.0703-3.2344c0-1.5469,0.32812-2.7305,0.98438-3.5508,0.65624-0.8203,1.5117-1.4297,2.5664-1.8281,1.0547-0.39843,2.2617-0.64453,3.6211-0.73828,1.3594-0.0937,2.7539-0.16406,4.1836-0.21094,1.4297-0.0469,2.8242-0.1289,4.1836-0.2461,1.3594-0.11717,2.5664-0.41014,3.6211-0.8789,1.0547-0.46874,1.9101-1.1836,2.5664-2.1445,0.65623-0.96093,0.98435-2.2852,0.98438-3.9727-0.00003-0.70311-0.0586-1.4062-0.17578-2.1094-0.11722-0.70311-0.26956-1.4062-0.45703-2.1094h0.14062c0.28123-0.42185,0.50388-1.043,0.66797-1.8633,0.16404-0.82029,0.2695-1.6992,0.31641-2.6367,0.0468-0.93747,0.0703-1.8398,0.0703-2.707-0.00003-0.86716-0.00003-1.5586,0-2.0742-0.00003-1.3125-0.0235-2.7304-0.0703-4.2539-0.0469-1.5234-0.25784-2.8945-0.63282-4.1133-0.0938-0.32808-0.19924-0.64449-0.3164-0.94922-0.11722-0.30464-0.17581-0.64449-0.17578-1.0195-0.00003-1.0781,0.18747-2.1445,0.5625-3.1992,0.37497-1.0546,0.56247-2.121,0.5625-3.1992-0.00003-0.42183-0.0352-0.73824-0.10547-0.94922-0.0703-0.21089-0.16409-0.39839-0.28125-0.5625-0.11722-0.16402-0.22268-0.32808-0.31641-0.49219-0.0938-0.16401-0.16409-0.38667-0.21094-0.66797,0.3281-0.51558,0.59763-1.0664,0.8086-1.6523,0.21091-0.58589,0.31638-1.1836,0.3164-1.793-0.00002-0.56245-0.11721-1.0429-0.35156-1.4414-0.2344-0.39838-0.49221-0.77338-0.77344-1.125-0.28127-0.35151-0.5508-0.71479-0.80859-1.0898-0.25784-0.37495-0.38674-0.79682-0.38672-1.2656-0.65627,0.00006-1.5-0.0117-2.5312-0.0352-1.0313-0.0234-2.1563-0.082-3.375-0.17578-1.2188-0.0937-2.4375-0.25776-3.6562-0.49219-1.2188-0.23432-2.3203-0.55072-3.3047-0.94922-0.98438-0.39838-1.793-0.914-2.4258-1.5469-0.63282-0.63275-0.94922-1.4179-0.94922-2.3555,0-0.65619,0.26953-1.2773,0.8086-1.8633,0.53905-0.58587,1.1953-1.0898,1.9688-1.5117,0.77342-0.42181,1.5937-0.74994,2.4609-0.98438,0.86718-0.23431,1.6055-0.35149,2.2148-0.35156,0.65623,0.00007,1.3242,0.0235,2.0039,0.0703,0.67967,0.0469,1.3476,0.0704,2.0039,0.0703,0.70311,0.00007,1.5586-0.0468,2.5664-0.14062,1.0078-0.0937,1.7929-0.3515,2.3555-0.77344,0.1406-0.14056,0.30466-0.50384,0.49218-1.0898,0.18748-0.58587,0.35154-1.2421,0.49219-1.9688,0.1406-0.72649,0.25779-1.4296,0.35156-2.1094,0.0937-0.67961,0.1406-1.1366,0.14063-1.3711-0.00003-1.078-0.0821-2.1093-0.2461-3.0938-0.16408-0.9843-0.24611-2.0156-0.24609-3.0938-0.00002-1.5468,0.18748-2.9765,0.5625-4.2891,0.37497-1.3124,1.125-2.5312,2.25-3.6562,1.3125-1.3124,2.5664-2.5898,3.7617-3.832,1.1953-1.2421,2.4375-2.3554,3.7266-3.3398,1.289-0.98428,2.6953-1.828,4.2188-2.5312,1.5234-0.70303,3.2929-1.1952,5.3086-1.4766,1.4062-0.1874,2.8242-0.39834,4.2539-0.63281,1.4296-0.23428,2.871-0.35147,4.3242-0.35157,0.79682,0.0001,1.8632,0.10557,3.1992,0.31641,1.3359,0.21104,2.7656,0.51572,4.2891,0.91406,1.5234,0.39854,3.0585,0.87901,4.6055,1.4414,1.5468,0.5626,2.9531,1.2071,4.2188,1.9336,1.2656,0.72666,2.2968,1.5235,3.0938,2.3906,0.7968,0.86728,1.1952,1.7931,1.1953,2.7773,1.453,0.047,2.5195,0.53915,3.1992,1.4766,0.67961,0.93759,1.1601,2.0626,1.4414,3.375,0.28117,1.3126,0.46867,2.6837,0.5625,4.1133,0.0937,1.4298,0.30461,2.6602,0.63281,3.6914z" fill="#666"/>
  <path id="path2992" d="m268.67,359.06c-0.00008,0.65628-0.10555,1.2774-0.31641,1.8633-0.21101,0.58597-0.44539,1.0899-0.70312,1.5117-0.25789,0.4219-0.49227,0.77346-0.70313,1.0547-0.21101,0.28127-0.31648,0.44533-0.3164,0.49218-0.00008,0.46878,0.15226,0.96097,0.45703,1.4766,0.30461,0.51564,0.45695,1.0781,0.45703,1.6875-0.00008,0.28127-0.10555,0.46877-0.31641,0.5625-0.21101,0.0938-0.43367,0.14064-0.66797,0.14062-0.42195,0.00002-0.77351-0.0469-1.0547-0.14062,0.0468,0.89064,0.12883,1.7578,0.24609,2.6016,0.11711,0.84377,0.17571,1.711,0.17578,2.6016-0.00007,1.3594-0.12898,2.2383-0.38672,2.6367-0.25789,0.39845-0.52742,0.64454-0.80859,0.73828-0.28133,0.0938-0.55086,0.19923-0.8086,0.31641-0.25788,0.1172-0.38679,0.55079-0.38671,1.3008-0.00008,0.42188-0.29305,0.96095-0.87891,1.6172-0.58601,0.65626-1.2891,1.3125-2.1094,1.9688-0.82038,0.65625-1.6641,1.2188-2.5312,1.6875-0.86725,0.46875-1.5587,0.70313-2.0742,0.70312-0.14069,0.00001-0.30476-0.0469-0.49219-0.14062-0.00007,0.375,0.0234,0.77344,0.0703,1.1953,0.0468,0.42188,0.0702,0.82031,0.0703,1.1953-0.00006,0.60938-0.18756,1.0195-0.5625,1.2305-0.37506,0.21094-0.79694,0.41016-1.2656,0.59766-0.70319,0.32812-1.4298,0.80859-2.1797,1.4414-0.75006,0.63281-1.5235,1.2773-2.3203,1.9336-0.79693,0.65624-1.6055,1.2305-2.4258,1.7226-0.82037,0.49219-1.6758,0.73828-2.5664,0.73828-0.75005,0-1.4415-0.1875-2.0742-0.5625-0.63286-0.375-1.3711-0.5625-2.2148-0.5625-0.75005,0-1.3829,0.10547-1.8984,0.31641-0.51567,0.21093-0.99614,0.44531-1.4414,0.70312-0.44535,0.25781-0.90238,0.49219-1.3711,0.70313-0.46879,0.21093-1.0079,0.3164-1.6172,0.31641-1.2188-0.00001-2.4375-0.31642-3.6562-0.94922-1.2188-0.63282-2.3907-1.1367-3.5156-1.5117-0.65629-0.23438-1.3594-0.41016-2.1094-0.52735-0.75003-0.11718-1.4766-0.24609-2.1797-0.38671-0.70316-0.14063-1.3711-0.36329-2.0039-0.66797-0.63284-0.30469-1.1836-0.73828-1.6523-1.3008-0.98441-1.2188-2.1328-2.2266-3.4453-3.0234-1.3125-0.79687-2.6485-1.5469-4.0078-2.25-1.3594-0.70312-2.6719-1.4414-3.9375-2.2148-1.2656-0.77342-2.3672-1.793-3.3047-3.0586-0.70313-0.98436-1.5-2.0508-2.3906-3.1992-0.89064-1.1484-1.7227-2.3554-2.4961-3.6211-0.77344-1.2656-1.418-2.5547-1.9336-3.8672-0.51563-1.3125-0.77344-2.6015-0.77344-3.8672,0-0.93747,0.0937-1.8515,0.28125-2.7422,0.1875-0.8906,0.38672-1.7929,0.59766-2.707,0.21093-0.91403,0.41015-1.8164,0.59766-2.707,0.18749-0.89059,0.28124-1.8046,0.28125-2.7422v-0.77344c-0.00001-0.18746-0.0703-0.3984-0.21094-0.63281-0.14063-0.23434-0.29298-0.457-0.45703-0.66797-0.16407-0.2109-0.32813-0.3984-0.49219-0.5625-0.16407-0.16403-0.26954-0.24606-0.31641-0.2461-0.0937,0.00004-0.14063,0.0235-0.14062,0.0703,0.0469-0.42184,0.17577-1.0664,0.38672-1.9336,0.21093-0.86714,0.45702-1.7578,0.73828-2.6719,0.28124-0.91402,0.56249-1.7578,0.84375-2.5312,0.28124-0.77339,0.53905-1.2773,0.77344-1.5117,0.28124-0.23433,0.55077-0.48042,0.80859-0.73828,0.2578-0.25777,0.38671-0.59761,0.38672-1.0195-0.00001-0.42183-0.0234-0.83199-0.0703-1.2305-0.0469-0.39839-0.0703-0.80855-0.0703-1.2305-0.00001-0.56245,0.0703-0.90229,0.21094-1.0195,0.14062-0.11714,0.32812-0.17573,0.5625-0.17578,0.23437,0.00005,0.46874-0.0351,0.70313-0.10547,0.23436-0.0703,0.46873-0.31636,0.70312-0.73828,0.42186-0.8437,0.83202-1.6288,1.2305-2.3555,0.39842-0.72651,0.83202-1.3945,1.3008-2.0039,0.46874-0.60932,1.0078-1.1718,1.6172-1.6875,0.60936-0.51556,1.3594-1.0078,2.25-1.4766,0.74998-0.42181,1.4883-0.93744,2.2148-1.5469,0.72654-0.60931,1.4648-1.2187,2.2148-1.8281,0.74997-0.60931,1.5117-1.1249,2.2852-1.5469,0.77341-0.4218,1.6054-0.63274,2.4961-0.63281,1.2656,0.00007,2.4961-0.22259,3.6914-0.66797,1.1953-0.44524,2.4023-0.78509,3.6211-1.0195,1.9218-0.28118,3.832-0.55071,5.7305-0.80859,1.8984-0.25775,3.832-0.38665,5.8008-0.38672,1.0781,0.00007,2.3906,0.17585,3.9375,0.52734,1.5468,0.35163,3.1288,0.80866,4.7461,1.3711,1.6171,0.56256,3.1406,1.1954,4.5703,1.8984,1.4296,0.70319,2.5664,1.4063,3.4102,2.1094v0.21094c-0.00006,0.65631-0.11725,1.3243-0.35156,2.0039-0.23444,0.67975-0.35163,1.3477-0.35157,2.0039-0.00006,0.0938-0.00006,0.18756,0,0.28125-0.00006,0.0938,0.0468,0.14068,0.14063,0.14062,0.79681,0.00006,1.5585-0.10541,2.2852-0.3164,0.7265-0.21088,1.4882-0.31635,2.2852-0.31641,0.0937,0.79694,0.44525,1.336,1.0547,1.6172,0.6093,0.28131,1.2187,0.53912,1.8281,0.77344,0.56243,0.2813,1.0898,0.78521,1.582,1.5117,0.49212,0.72662,0.94915,1.5469,1.3711,2.4609,0.4218,0.91412,0.83196,1.8165,1.2305,2.707,0.39836,0.89068,0.78508,1.6172,1.1602,2.1797,0.37493,0.56255,0.71477,1.2305,1.0195,2.0039,0.30462,0.77348,0.56243,1.5821,0.77344,2.4258,0.21086,0.84379,0.36321,1.6758,0.45703,2.4961,0.0937,0.82036,0.14055,1.5821,0.14063,2.2852-0.00008,0.93754-0.17586,1.7227-0.52735,2.3555-0.35163,0.63285-0.73835,1.1954-1.1602,1.6875-0.42195,0.49222-0.80867,0.96097-1.1602,1.4062-0.35163,0.44534-0.52742,0.94925-0.52734,1.5117-0.00008,0.32815,0.0702,0.63284,0.21094,0.91406,0.14055,0.28128,0.32805,0.53909,0.5625,0.77344,0.0937-0.0469,0.29289-0.0937,0.59765-0.14063,0.30461-0.0468,0.45696-0.18747,0.45703-0.42187v-0.0703c-0.00007-0.37496-0.15242-0.72653-0.45703-1.0547-0.30476-0.3281-0.4571-0.72653-0.45703-1.1953-0.00007-0.0937,0.0468-0.24606,0.14063-0.45703,0.0937-0.2109,0.21086-0.31637,0.35156-0.3164,0.28117,0.00003,0.56242,0.17581,0.84375,0.52734,0.28117,0.3516,0.5507,0.7266,0.80859,1.125,0.25774,0.39847,0.45696,0.73831,0.59766,1.0195,0.14055,0.28128,0.21086,0.37503,0.21094,0.28125l-0.0703-0.0703c0.0468,0.2344,0.082,0.43362,0.10547,0.59765,0.0234,0.1641,0.0351,0.33988,0.0352,0.52735zm-7.0312,0.5625c-0.00007-0.74997-0.28132-1.207-0.84375-1.3711-0.56257-0.16403-1.1954-0.2695-1.8984-0.3164-0.70319-0.0468-1.3946-0.11716-2.0742-0.21094-0.67975-0.0937-1.1368-0.44528-1.3711-1.0547v-0.70312c-0.00007-1.0312-0.12897-2.2382-0.38672-3.6211-0.25788-1.3828-0.57428-2.789-0.94922-4.2188-0.37506-1.4296-0.7735-2.8359-1.1953-4.2188-0.42194-1.3828-0.82038-2.6132-1.1953-3.6914-0.37506-1.0781-0.67975-1.9453-0.91407-2.6016-0.23443-0.6562-0.35162-0.98433-0.35156-0.98438-0.37506,0.0938-0.67975,0.14068-0.91406,0.14063-0.79693,0.00005-1.4883-0.16401-2.0742-0.49219-0.58599-0.32807-1.2422-0.67964-1.9688-1.0547-0.72662-0.37494-1.6172-0.72651-2.6719-1.0547-1.0547-0.32807-2.4493-0.49213-4.1836-0.49218-1.9219,0.00005-3.8204-0.12885-5.6953-0.38672-1.875-0.25776-3.7735-0.38666-5.6953-0.38672-2.625,0.00006-5.086,0.59771-7.3828,1.793-2.2969,1.1954-4.3125,2.7657-6.0469,4.7109-1.7344,1.9454-3.0938,4.1368-4.0781,6.5742-0.98439,2.4375-1.4766,4.8985-1.4766,7.3828-0.00002,1.0313,0.0234,2.2383,0.0703,3.6211s0.16405,2.7656,0.35157,4.1484c0.18748,1.3828,0.49216,2.6719,0.91406,3.8672,0.42185,1.1953,1.0078,2.0977,1.7578,2.707v1.9688c0.18748,0.18752,0.43357,0.29298,0.73828,0.3164,0.30467,0.0235,0.60935,0.0352,0.91406,0.0352,0.30467,0.00002,0.5742,0.0352,0.8086,0.10547,0.23435,0.0703,0.42185,0.26955,0.5625,0.59765,0.60935,1.7344,1.4062,3.0586,2.3906,3.9727,0.98435,0.91408,2.039,1.6875,3.1641,2.3203,1.125,0.63283,2.25,1.2656,3.375,1.8984,1.125,0.63282,2.1562,1.5586,3.0938,2.7773,0.37496-0.0469,0.7734-0.082,1.1953-0.10547,0.42184-0.0234,0.82027-0.0351,1.1953-0.0351,1.5,0.00001,2.9648,0.10548,4.3945,0.3164,1.4296,0.21095,2.871,0.31642,4.3242,0.31641,1.5468,0.00001,2.9414-0.39843,4.1836-1.1953,1.2421-0.79687,2.3085-1.8047,3.1992-3.0234,0.56245-0.79686,1.0781-1.4766,1.5469-2.0391,0.46869-0.56249,0.94916-1.0898,1.4414-1.582,0.49213-0.49217,1.0312-0.96092,1.6172-1.4062,0.58588-0.4453,1.2773-0.9492,2.0742-1.5117,0.28119-0.18748,0.62103-0.42186,1.0195-0.70313,0.39838-0.28123,0.79681-0.59763,1.1953-0.94922,0.39838-0.35154,0.73822-0.7031,1.0195-1.0547,0.28118-0.35154,0.42181-0.69139,0.42187-1.0195-0.00006-0.42186-0.0587-0.84373-0.17578-1.2656-0.11725-0.42185-0.17585-0.84373-0.17578-1.2656-0.00007-0.46873,0.0703-1.0312,0.21094-1.6875,0.14056-0.65623,0.36321-1.289,0.66796-1.8984,0.30463-0.60935,0.67963-1.1132,1.125-1.5117,0.44525-0.39841,0.99603-0.59763,1.6524-0.59766,0.51555,0.00003,1.0312,0.11722,1.5469,0.35157,0.51556,0.2344,0.98431,0.51565,1.4062,0.84375,0.0937-0.46872,0.14056-0.82029,0.14063-1.0547z" fill="#666"/>
  <path id="path2994" d="m352.76,359.06c-0.00008,0.65628-0.10555,1.2774-0.31641,1.8633-0.21101,0.58597-0.44539,1.0899-0.70312,1.5117-0.25789,0.4219-0.49227,0.77346-0.70313,1.0547-0.21101,0.28127-0.31648,0.44533-0.3164,0.49218-0.00008,0.46878,0.15226,0.96097,0.45703,1.4766,0.30461,0.51564,0.45695,1.0781,0.45703,1.6875-0.00008,0.28127-0.10555,0.46877-0.31641,0.5625-0.21101,0.0938-0.43367,0.14064-0.66797,0.14062-0.42195,0.00002-0.77351-0.0469-1.0547-0.14062,0.0468,0.89064,0.12883,1.7578,0.24609,2.6016,0.11711,0.84377,0.17571,1.711,0.17578,2.6016-0.00007,1.3594-0.12898,2.2383-0.38672,2.6367-0.25789,0.39845-0.52742,0.64454-0.80859,0.73828-0.28133,0.0938-0.55086,0.19923-0.8086,0.31641-0.25788,0.1172-0.38679,0.55079-0.38671,1.3008-0.00008,0.42188-0.29305,0.96095-0.87891,1.6172-0.58601,0.65626-1.2891,1.3125-2.1094,1.9688-0.82038,0.65625-1.6641,1.2188-2.5312,1.6875-0.86725,0.46875-1.5587,0.70313-2.0742,0.70312-0.14069,0.00001-0.30476-0.0469-0.49219-0.14062-0.00007,0.375,0.0234,0.77344,0.0703,1.1953,0.0468,0.42188,0.0702,0.82031,0.0703,1.1953-0.00006,0.60938-0.18756,1.0195-0.5625,1.2305-0.37506,0.21094-0.79694,0.41016-1.2656,0.59766-0.70319,0.32812-1.4298,0.80859-2.1797,1.4414-0.75006,0.63281-1.5235,1.2773-2.3203,1.9336-0.79693,0.65624-1.6055,1.2305-2.4258,1.7226-0.82037,0.49219-1.6758,0.73828-2.5664,0.73828-0.75005,0-1.4415-0.1875-2.0742-0.5625-0.63286-0.375-1.3711-0.5625-2.2148-0.5625-0.75005,0-1.3829,0.10547-1.8984,0.31641-0.51567,0.21093-0.99614,0.44531-1.4414,0.70312-0.44535,0.25781-0.90238,0.49219-1.3711,0.70313-0.46879,0.21093-1.0079,0.3164-1.6172,0.31641-1.2188-0.00001-2.4375-0.31642-3.6562-0.94922-1.2188-0.63282-2.3907-1.1367-3.5156-1.5117-0.65629-0.23438-1.3594-0.41016-2.1094-0.52735-0.75003-0.11718-1.4766-0.24609-2.1797-0.38671-0.70316-0.14063-1.3711-0.36329-2.0039-0.66797-0.63284-0.30469-1.1836-0.73828-1.6523-1.3008-0.98441-1.2188-2.1328-2.2266-3.4453-3.0234-1.3125-0.79687-2.6485-1.5469-4.0078-2.25-1.3594-0.70312-2.6719-1.4414-3.9375-2.2148-1.2656-0.77342-2.3672-1.793-3.3047-3.0586-0.70313-0.98436-1.5-2.0508-2.3906-3.1992-0.89064-1.1484-1.7227-2.3554-2.4961-3.6211-0.77344-1.2656-1.418-2.5547-1.9336-3.8672-0.51563-1.3125-0.77344-2.6015-0.77344-3.8672,0-0.93747,0.0937-1.8515,0.28125-2.7422,0.1875-0.8906,0.38672-1.7929,0.59766-2.707,0.21093-0.91403,0.41015-1.8164,0.59766-2.707,0.18749-0.89059,0.28124-1.8046,0.28125-2.7422v-0.77344c-0.00001-0.18746-0.0703-0.3984-0.21094-0.63281-0.14063-0.23434-0.29298-0.457-0.45703-0.66797-0.16407-0.2109-0.32813-0.3984-0.49219-0.5625-0.16407-0.16403-0.26954-0.24606-0.31641-0.2461-0.0937,0.00004-0.14063,0.0235-0.14062,0.0703,0.0469-0.42184,0.17577-1.0664,0.38672-1.9336,0.21093-0.86714,0.45702-1.7578,0.73828-2.6719,0.28124-0.91402,0.56249-1.7578,0.84375-2.5312,0.28124-0.77339,0.53905-1.2773,0.77344-1.5117,0.28124-0.23433,0.55077-0.48042,0.80859-0.73828,0.2578-0.25777,0.38671-0.59761,0.38672-1.0195-0.00001-0.42183-0.0234-0.83199-0.0703-1.2305-0.0469-0.39839-0.0703-0.80855-0.0703-1.2305-0.00001-0.56245,0.0703-0.90229,0.21094-1.0195,0.14062-0.11714,0.32812-0.17573,0.5625-0.17578,0.23437,0.00005,0.46874-0.0351,0.70313-0.10547,0.23436-0.0703,0.46873-0.31636,0.70312-0.73828,0.42186-0.8437,0.83202-1.6288,1.2305-2.3555,0.39842-0.72651,0.83202-1.3945,1.3008-2.0039,0.46874-0.60932,1.0078-1.1718,1.6172-1.6875,0.60936-0.51556,1.3594-1.0078,2.25-1.4766,0.74998-0.42181,1.4883-0.93744,2.2148-1.5469,0.72654-0.60931,1.4648-1.2187,2.2148-1.8281,0.74997-0.60931,1.5117-1.1249,2.2852-1.5469,0.77341-0.4218,1.6054-0.63274,2.4961-0.63281,1.2656,0.00007,2.4961-0.22259,3.6914-0.66797,1.1953-0.44524,2.4023-0.78509,3.6211-1.0195,1.9218-0.28118,3.832-0.55071,5.7305-0.80859,1.8984-0.25775,3.832-0.38665,5.8008-0.38672,1.0781,0.00007,2.3906,0.17585,3.9375,0.52734,1.5468,0.35163,3.1288,0.80866,4.7461,1.3711,1.6171,0.56256,3.1406,1.1954,4.5703,1.8984,1.4296,0.70319,2.5664,1.4063,3.4102,2.1094v0.21094c-0.00006,0.65631-0.11725,1.3243-0.35156,2.0039-0.23444,0.67975-0.35163,1.3477-0.35157,2.0039-0.00006,0.0938-0.00006,0.18756,0,0.28125-0.00006,0.0938,0.0468,0.14068,0.14063,0.14062,0.79681,0.00006,1.5585-0.10541,2.2852-0.3164,0.7265-0.21088,1.4882-0.31635,2.2852-0.31641,0.0937,0.79694,0.44525,1.336,1.0547,1.6172,0.6093,0.28131,1.2187,0.53912,1.8281,0.77344,0.56243,0.2813,1.0898,0.78521,1.582,1.5117,0.49212,0.72662,0.94915,1.5469,1.3711,2.4609,0.4218,0.91412,0.83196,1.8165,1.2305,2.707,0.39836,0.89068,0.78508,1.6172,1.1602,2.1797,0.37493,0.56255,0.71477,1.2305,1.0195,2.0039,0.30462,0.77348,0.56243,1.5821,0.77344,2.4258,0.21086,0.84379,0.36321,1.6758,0.45703,2.4961,0.0937,0.82036,0.14055,1.5821,0.14063,2.2852-0.00008,0.93754-0.17586,1.7227-0.52735,2.3555-0.35163,0.63285-0.73835,1.1954-1.1602,1.6875-0.42195,0.49222-0.80867,0.96097-1.1602,1.4062-0.35163,0.44534-0.52742,0.94925-0.52734,1.5117-0.00008,0.32815,0.0702,0.63284,0.21094,0.91406,0.14055,0.28128,0.32805,0.53909,0.5625,0.77344,0.0937-0.0469,0.29289-0.0937,0.59765-0.14063,0.30461-0.0468,0.45696-0.18747,0.45703-0.42187v-0.0703c-0.00007-0.37496-0.15242-0.72653-0.45703-1.0547-0.30476-0.3281-0.4571-0.72653-0.45703-1.1953-0.00007-0.0937,0.0468-0.24606,0.14063-0.45703,0.0937-0.2109,0.21086-0.31637,0.35156-0.3164,0.28117,0.00003,0.56242,0.17581,0.84375,0.52734,0.28117,0.3516,0.5507,0.7266,0.80859,1.125,0.25774,0.39847,0.45696,0.73831,0.59766,1.0195,0.14055,0.28128,0.21086,0.37503,0.21094,0.28125l-0.0703-0.0703c0.0468,0.2344,0.082,0.43362,0.10547,0.59765,0.0234,0.1641,0.0351,0.33988,0.0352,0.52735zm-7.0312,0.5625c-0.00007-0.74997-0.28132-1.207-0.84375-1.3711-0.56257-0.16403-1.1954-0.2695-1.8984-0.3164-0.70319-0.0468-1.3946-0.11716-2.0742-0.21094-0.67975-0.0937-1.1368-0.44528-1.3711-1.0547v-0.70312c-0.00007-1.0312-0.12897-2.2382-0.38672-3.6211-0.25788-1.3828-0.57428-2.789-0.94922-4.2188-0.37506-1.4296-0.7735-2.8359-1.1953-4.2188-0.42194-1.3828-0.82038-2.6132-1.1953-3.6914-0.37506-1.0781-0.67975-1.9453-0.91407-2.6016-0.23443-0.6562-0.35162-0.98433-0.35156-0.98438-0.37506,0.0938-0.67975,0.14068-0.91406,0.14063-0.79693,0.00005-1.4883-0.16401-2.0742-0.49219-0.58599-0.32807-1.2422-0.67964-1.9688-1.0547-0.72662-0.37494-1.6172-0.72651-2.6719-1.0547-1.0547-0.32807-2.4493-0.49213-4.1836-0.49218-1.9219,0.00005-3.8204-0.12885-5.6953-0.38672-1.875-0.25776-3.7735-0.38666-5.6953-0.38672-2.625,0.00006-5.086,0.59771-7.3828,1.793-2.2969,1.1954-4.3125,2.7657-6.0469,4.7109-1.7344,1.9454-3.0938,4.1368-4.0781,6.5742-0.98439,2.4375-1.4766,4.8985-1.4766,7.3828-0.00002,1.0313,0.0234,2.2383,0.0703,3.6211s0.16405,2.7656,0.35157,4.1484c0.18748,1.3828,0.49216,2.6719,0.91406,3.8672,0.42185,1.1953,1.0078,2.0977,1.7578,2.707v1.9688c0.18748,0.18752,0.43357,0.29298,0.73828,0.3164,0.30467,0.0235,0.60935,0.0352,0.91406,0.0352,0.30467,0.00002,0.5742,0.0352,0.8086,0.10547,0.23435,0.0703,0.42185,0.26955,0.5625,0.59765,0.60935,1.7344,1.4062,3.0586,2.3906,3.9727,0.98435,0.91408,2.039,1.6875,3.1641,2.3203,1.125,0.63283,2.25,1.2656,3.375,1.8984,1.125,0.63282,2.1562,1.5586,3.0938,2.7773,0.37496-0.0469,0.7734-0.082,1.1953-0.10547,0.42184-0.0234,0.82027-0.0351,1.1953-0.0351,1.5,0.00001,2.9648,0.10548,4.3945,0.3164,1.4296,0.21095,2.871,0.31642,4.3242,0.31641,1.5468,0.00001,2.9414-0.39843,4.1836-1.1953,1.2421-0.79687,2.3085-1.8047,3.1992-3.0234,0.56245-0.79686,1.0781-1.4766,1.5469-2.0391,0.46869-0.56249,0.94916-1.0898,1.4414-1.582,0.49213-0.49217,1.0312-0.96092,1.6172-1.4062,0.58588-0.4453,1.2773-0.9492,2.0742-1.5117,0.28119-0.18748,0.62103-0.42186,1.0195-0.70313,0.39838-0.28123,0.79681-0.59763,1.1953-0.94922,0.39838-0.35154,0.73822-0.7031,1.0195-1.0547,0.28118-0.35154,0.42181-0.69139,0.42187-1.0195-0.00006-0.42186-0.0587-0.84373-0.17578-1.2656-0.11725-0.42185-0.17585-0.84373-0.17578-1.2656-0.00007-0.46873,0.0702-1.0312,0.21094-1.6875,0.14056-0.65623,0.36321-1.289,0.66796-1.8984,0.30463-0.60935,0.67963-1.1132,1.125-1.5117,0.44525-0.39841,0.99603-0.59763,1.6524-0.59766,0.51555,0.00003,1.0312,0.11722,1.5469,0.35157,0.51556,0.2344,0.98431,0.51565,1.4062,0.84375,0.0937-0.46872,0.14056-0.82029,0.14063-1.0547z" fill="#666"/>
  <path id="path2996" d="m437.84,384.87c-0.00008,0.51563-0.1407,1.0195-0.42187,1.5117-0.28133,0.49219-0.63289,0.93751-1.0547,1.3359-0.42195,0.39844-0.8907,0.72657-1.4062,0.98438-0.5157,0.25781-1.0079,0.38672-1.4766,0.38672-0.3282,0-0.65633-0.0234-0.98438-0.0703-0.3282-0.0469-0.65632-0.0703-0.98437-0.0703-0.42195,0-0.7032,0.12891-0.84375,0.38672-0.1407,0.25781-0.2696,0.52734-0.38672,0.80859-0.11726,0.28125-0.29304,0.55078-0.52734,0.8086-0.23445,0.25781-0.65632,0.38671-1.2656,0.38672-0.37507-0.00001-0.77351-0.0469-1.1953-0.14063-0.42194-0.0937-0.84382-0.14063-1.2656-0.14062-0.89069-0.00001-1.7462,0.17578-2.5664,0.52734-0.82038,0.35156-1.6993,0.52734-2.6367,0.52734-0.79694,0-1.9922-0.12891-3.5859-0.38672-1.5938-0.25781-3.1993-0.65625-4.8164-1.1953-1.6172-0.53906-3.0352-1.1953-4.2539-1.9688-1.2188-0.77343-1.8282-1.6758-1.8281-2.707-0.00004-0.79687,0.45699-1.6055,1.3711-2.4258,0.91401-0.82031,1.9335-1.7344,3.0586-2.7422,1.125-1.0078,2.1445-2.1445,3.0586-3.4102,0.91401-1.2656,1.371-2.7422,1.3711-4.4297-0.00006-0.98436-0.19928-1.9453-0.59766-2.8828-0.39849-0.93748-0.9024-1.8164-1.5117-2.6367-0.60943-0.82029-1.3008-1.582-2.0742-2.2852-0.77348-0.7031-1.5118-1.3594-2.2148-1.9688-0.23442-0.0937-0.58599-0.1406-1.0547-0.14062-1.2657,0.00002-2.5313,0.12893-3.7969,0.38671-1.2657,0.25784-2.5313,0.38675-3.7969,0.38672-0.65629,0.00003-1.3243-0.0937-2.0039-0.28125-0.67973-0.18747-1.1368-0.65622-1.3711-1.4062-1.2188,0.60941-2.4375,1.1836-3.6562,1.7227-1.2188,0.53909-2.461,1.0196-3.7266,1.4414-0.7969,0.28127-1.3711,0.49221-1.7227,0.63281-0.35159,0.14065-0.6094,0.30471-0.77343,0.49219-0.16409,0.18752-0.28128,0.46877-0.35157,0.84375-0.0703,0.37502-0.24612,0.91408-0.52734,1.6172-0.18753,0.46877-0.28128,0.89065-0.28125,1.2656-0.00003,0.37502-0.00003,0.79689,0,1.2656-0.00003,0.6094-0.11721,1.0899-0.35156,1.4414-0.2344,0.35158-0.4805,0.6797-0.73828,0.98437-0.25784,0.30471-0.50393,0.62111-0.73828,0.94922-0.2344,0.32814-0.35159,0.75002-0.35157,1.2656-0.00002,0.42189,0.0703,0.79689,0.21094,1.125l-0.0703,0.35156c-0.00003,0.70314,0.18747,1.2539,0.5625,1.6523,0.37497,0.39845,0.832,0.70314,1.3711,0.91407,0.53904,0.21094,1.1133,0.41016,1.7227,0.59765,0.60934,0.18751,1.1484,0.42189,1.6172,0.70313,0.46872,0.28126,0.92575,0.73829,1.3711,1.3711,0.44528,0.63282,0.84372,1.3125,1.1953,2.0391,0.35153,0.72657,0.6445,1.4531,0.87891,2.1797,0.23434,0.72657,0.35153,1.3477,0.35156,1.8633v0.35157h-0.91406c-1.875,0-3.7383,0.082-5.5898,0.24609-1.8516,0.16406-3.6914,0.35156-5.5195,0.5625s-3.668,0.39844-5.5195,0.5625c-1.8516,0.16406-3.7148,0.24609-5.5898,0.24609-0.65626,0-1.6055-0.0234-2.8477-0.0703s-2.4727-0.17578-3.6914-0.38672c-1.2188-0.21094-2.2852-0.5625-3.1992-1.0547-0.91407-0.49218-1.3711-1.207-1.3711-2.1445,0-0.98437,0.22266-1.8047,0.66797-2.4609,0.44531-0.65625,1.0312-1.207,1.7578-1.6524,0.72656-0.4453,1.5469-0.8203,2.4609-1.125,0.91406-0.30468,1.8281-0.59765,2.7422-0.8789,0.91405-0.28125,1.7812-0.56249,2.6016-0.84375,0.8203-0.28124,1.5117-0.65624,2.0742-1.125,0.56249-0.46874,1.0312-1.2305,1.4062-2.2852,0.37499-1.0547,0.67967-2.1914,0.91406-3.4102,0.23436-1.2187,0.4453-2.4258,0.63282-3.6211,0.18748-1.1953,0.35154-2.1445,0.49218-2.8477,0.0469-0.23435,0.082-0.52732,0.10547-0.8789,0.0234-0.35154,0.0469-0.71482,0.0703-1.0898,0.0234-0.37497,0.0469-0.72653,0.0703-1.0547,0.0234-0.3281,0.082-0.56248,0.17578-0.70313,0.46873-0.79685,0.83201-1.2656,1.0898-1.4062,0.2578-0.1406,0.4453-0.25778,0.5625-0.35156,0.11717-0.0937,0.18748-0.33982,0.21094-0.73828,0.0234-0.39841,0.0351-1.2304,0.0352-2.4961-0.00002-0.56246,0.11717-0.99606,0.35156-1.3008,0.23435-0.30465,0.48045-0.57418,0.73828-0.80859,0.25779-0.23434,0.50389-0.457,0.73828-0.66797,0.23436-0.2109,0.35154-0.50387,0.35156-0.87891-0.00002-0.65621-0.18752-1.2539-0.5625-1.793-0.37502-0.53902-0.56252-1.1367-0.5625-1.793-0.00002-0.37497,0.0937-0.70309,0.28125-0.98438,0.18748-0.28121,0.41014-0.53902,0.66797-0.77344,0.25779-0.23433,0.48045-0.48042,0.66797-0.73828,0.18748-0.25777,0.28123-0.57417,0.28125-0.94922-0.00002-0.51558-0.10549-1.0312-0.31641-1.5469-0.21095-0.51558-0.31642-1.0312-0.3164-1.5469-0.00002-0.37495,0.12888-0.64448,0.38672-0.80859,0.25779-0.16402,0.53904-0.29292,0.84375-0.38672,0.30466-0.0937,0.58591-0.17573,0.84375-0.24609,0.25779-0.0703,0.38669-0.17574,0.38672-0.31641-0.14065-0.2812-0.39846-0.42183-0.77344-0.42187-0.56252,0.00004-0.84377,0.30473-0.84375,0.91406-0.32815-0.23433-0.6094-0.50386-0.84375-0.8086-0.2344-0.30464-0.35158-0.64448-0.35156-1.0195-0.00002-0.4687,0.11716-0.90229,0.35156-1.3008,0.23435-0.39839,0.50388-0.85542,0.80859-1.3711,0.30467-0.51558,0.5742-1.1015,0.8086-1.7578,0.23435-0.6562,0.35154-1.4531,0.35156-2.3906-0.00002-0.98432-0.14065-1.9335-0.42188-2.8477-0.28127-0.914-0.42189-1.8398-0.42187-2.7773-0.00002-0.46869,0.10545-0.93744,0.3164-1.4062,0.21092-0.46869,0.46873-0.92572,0.77344-1.3711,0.30467-0.44525,0.60935-0.89056,0.91406-1.3359,0.30467-0.44525,0.52732-0.92572,0.66797-1.4414,0.28123-0.89055,0.43357-1.828,0.45703-2.8125,0.0234-0.9843,0.0469-1.9687,0.0703-2.9531,0.0234-0.9843,0.0937-1.957,0.21093-2.918,0.11717-0.96086,0.41014-1.8632,0.87891-2.707,0.42185-0.74992,0.74997-1.3593,0.98438-1.8281,0.23434-0.46867,0.44528-0.9257,0.63281-1.3711,0.18747-0.44523,0.35153-0.93742,0.49219-1.4766,0.14059-0.53898,0.28122-1.2538,0.42187-2.1445,0.23435-1.3593,0.59763-2.6718,1.0898-3.9375,0.49216-1.2655,0.83201-2.578,1.0195-3.9375,0.0937-1.0312,0.15231-1.9101,0.17578-2.6367,0.0234-0.72647,0.14059-1.371,0.35156-1.9336,0.21091-0.5624,0.58591-1.0546,1.125-1.4766,0.53903-0.42178,1.3711-0.84365,2.4961-1.2656,1.2187-0.42178,2.4375-0.71475,3.6562-0.87891,1.2187-0.16396,2.4375-0.24599,3.6562-0.24609,1.4062,0.0001,2.8593,0.0704,4.3594,0.21093,0.14058,0.79698,0.44526,1.5118,0.91406,2.1445,0.4687,0.63292,0.97261,1.254,1.5117,1.8633,0.53901,0.60947,1.0546,1.2306,1.5469,1.8633,0.49214,0.6329,0.83198,1.3478,1.0195,2.1445,0.23432,1.0782,0.38666,2.0978,0.45703,3.0586,0.0703,0.96103,0.45698,1.9102,1.1602,2.8477,0.32808,0.51571,0.49214,1.1251,0.49219,1.8281-0.00005,1.0782-0.14068,2.1095-0.42187,3.0938-0.28131,0.98446-0.42193,1.9923-0.42188,3.0234-0.00005,0.60945,0.18745,1.6173,0.5625,3.0234,0.37495,1.4063,0.82026,2.918,1.3359,4.5352,0.51557,1.6173,1.0078,3.1876,1.4766,4.7109,0.46869,1.5235,0.82026,2.7071,1.0547,3.5508,0.42182,1.7813,0.64447,3.6094,0.66797,5.4844,0.0234,1.875,0.31635,3.7032,0.8789,5.4844,0.56244,1.875,1.0546,3.7383,1.4766,5.5898,0.42181,1.8516,0.70306,3.7618,0.84375,5.7305,0.0937,1.8282,0.32806,3.5977,0.70312,5.3086,0.37494,1.711,0.77338,3.4219,1.1953,5.1328,0.42182,1.711,0.80853,3.4336,1.1602,5.168,0.3515,1.7344,0.52728,3.5391,0.52734,5.4141-0.00006,0.70315-0.0587,1.4297-0.17578,2.1797-0.11725,0.75002-0.43366,1.4063-0.94922,1.9688,0.98431,1.1719,2.0976,2.4375,3.3398,3.7969,1.2421,1.3594,2.4726,2.4375,3.6914,3.2344,0.46868,0.28126,1.1952,0.4922,2.1797,0.63281,0.9843,0.14064,1.9804,0.31642,2.9883,0.52735,1.0077,0.21094,1.8984,0.51563,2.6719,0.91406,0.77336,0.39844,1.1601,0.97266,1.1602,1.7227zm-29.461-37.898c-0.00005-0.42183-0.16412-0.97261-0.49219-1.6524-0.32818-0.67964-0.69146-1.4414-1.0898-2.2852-0.39848-0.8437-0.76176-1.7578-1.0898-2.7422-0.32817-0.98432-0.49223-2.0156-0.49219-3.0938-0.00004-1.2656-0.18754-2.5195-0.5625-3.7617-0.37504-1.2421-0.63285-2.496-0.77343-3.7617-0.0938-1.0312-0.19927-2.1679-0.31641-3.4102-0.11723-1.2421-0.36333-2.414-0.73828-3.5156-0.37505-1.1015-0.94926-2.0156-1.7227-2.7422-0.77348-0.72649-1.8868-1.0898-3.3398-1.0898-0.0938,0.37507-0.25785,0.6446-0.49219,0.80859-0.23441,0.16414-0.50394,0.30476-0.80859,0.42188-0.30473,0.11726-0.62113,0.22273-0.94922,0.31641-0.32816,0.0938-0.58598,0.25788-0.77344,0.49218,0.0468,0.1407,0.0703,0.35163,0.0703,0.63282-0.00003,0.84381-0.17581,1.629-0.52734,2.3555-0.3516,0.72663-0.668,1.4649-0.94922,2.2148-0.32816,0.79694-0.55081,1.629-0.66797,2.4961-0.11722,0.86725-0.17581,1.7227-0.17578,2.5664-0.00003,0.75006,0.0234,1.4766,0.0703,2.1797,0.0468,0.70318,0.0703,1.4063,0.0703,2.1094-0.00004,1.0782-0.0938,2.004-0.28125,2.7773-0.18754,0.77349-0.39847,1.4883-0.63282,2.1445-0.2344,0.65629-0.44534,1.2774-0.63281,1.8633-0.18753,0.58598-0.28128,1.2071-0.28125,1.8633-0.00003,1.4063,0.0468,2.625,0.14063,3.6562,0.0937,1.0313,0.30465,1.8868,0.63281,2.5664,0.32809,0.67973,0.79684,1.1954,1.4062,1.5469,0.60934,0.3516,1.4531,0.52738,2.5312,0.52734,0.74996,0.00004,1.8398-0.0937,3.2695-0.28125,1.4296-0.18746,2.8593-0.50386,4.2891-0.94922,1.4296-0.44527,2.6718-1.0195,3.7266-1.7226,1.0546-0.70309,1.582-1.5468,1.582-2.5312z" fill="#111"/>
  <path id="path2998" d="m513.85,353.72c-0.00008,0.79691-0.18758,1.5-0.5625,2.1094-0.37508,0.60941-1.0313,0.93754-1.9688,0.98438,0.28117,0.89066,0.70305,1.7344,1.2656,2.5312,0.56243,0.7969,0.84368,1.6875,0.84375,2.6719-0.00007,0.65628-0.10554,1.3008-0.31641,1.9336-0.21101,0.63283-0.44538,1.2539-0.70312,1.8633-0.25789,0.6094-0.52742,1.2188-0.80859,1.8281-0.28133,0.6094-0.49226,1.2188-0.63282,1.8281-0.23444,0.93752-0.76179,2.2617-1.582,3.9726-0.82038,1.711-1.7344,3.4805-2.7422,5.3086-1.0079,1.8281-2.0274,3.5274-3.0586,5.0976-1.0313,1.5703-1.8985,2.6836-2.6016,3.3398-0.51569,0.46875-1.0548,0.79687-1.6172,0.98437-0.56256,0.1875-1.1251,0.32813-1.6875,0.42188-0.56256,0.0937-1.1485,0.17578-1.7578,0.24609-0.60943,0.0703-1.1954,0.22266-1.7578,0.45703-1.1251,0.51563-2.1915,1.1133-3.1992,1.793-1.0079,0.67969-2.1446,1.0195-3.4102,1.0195-0.51567,0-0.98442-0.11719-1.4062-0.35156-0.42192-0.23438-0.83208-0.49219-1.2305-0.77344-0.39848-0.28125-0.80864-0.53906-1.2305-0.77343-0.42192-0.23438-0.89067-0.35157-1.4062-0.35157-0.60942,0.375-1.3828,0.67969-2.3203,0.91407-0.93754,0.23437-1.9102,0.42187-2.918,0.5625-1.0078,0.14062-1.9922,0.23437-2.9531,0.28125-0.96098,0.0469-1.793,0.0703-2.4961,0.0703-2.3438,0-4.3125-0.52735-5.9062-1.582-1.5938-1.0547-3.0703-2.4727-4.4297-4.2539-0.32815,0.0937-0.67971,0.25782-1.0547,0.49219-0.37502,0.23438-0.75002,0.49219-1.125,0.77344-0.37502,0.28125-0.72658,0.52734-1.0547,0.73828-0.32814,0.21094-0.58596,0.3164-0.77344,0.3164l-0.14062-0.91406-0.42188-0.49219c-0.42189,0.00001-0.78517,0.12891-1.0898,0.38672-0.30471,0.25782-0.58595,0.55079-0.84375,0.87891-0.25783,0.32812-0.53908,0.62109-0.84375,0.8789-0.3047,0.25782-0.69142,0.38672-1.1602,0.38672-0.51564,0-1.0078-0.082-1.4766-0.24609-0.46876-0.16406-0.70314-0.57422-0.70312-1.2305-0.00002-0.51562,0.10545-0.97265,0.3164-1.3711,0.21093-0.39844,0.3164-0.85547,0.31641-1.3711-0.00001-0.60937-0.0703-1.1953-0.21094-1.7578-0.14064-0.56249-0.21095-1.125-0.21094-1.6875-0.00001-0.60937,0.0586-1.1953,0.17578-1.7578,0.11718-0.56249,0.17577-1.1484,0.17579-1.7578-0.00002-0.70312-0.10549-1.4062-0.31641-2.1094-0.21095-0.70311-0.43361-1.3945-0.66797-2.0742-0.23439-0.67967-0.45704-1.3594-0.66797-2.0391-0.21095-0.67967-0.31642-1.3945-0.3164-2.1445-0.00002-0.98436,0.21092-1.9218,0.63281-2.8125,0.42186-0.8906,0.6328-1.8281,0.63281-2.8125-0.00001-0.3281-0.0469-0.59763-0.14062-0.8086-0.0938-0.21091-0.18752-0.39841-0.28125-0.5625-0.0938-0.16403-0.18752-0.37497-0.28125-0.63281-0.0938-0.25778-0.14064-0.6445-0.14063-1.1602-0.00001-0.5156,0.0117-1.0664,0.0352-1.6524,0.0234-0.5859,0.0351-0.99606,0.0351-1.2305-0.00001-0.74996-0.0703-1.4765-0.21093-2.1797-0.14064-0.70309-0.21095-1.4297-0.21094-2.1797-0.00001-1.2187,0.16405-2.4375,0.49219-3.6562,0.32811-1.2187,0.49217-2.4375,0.49218-3.6562-0.00001-1.6406-0.12891-3.2812-0.38672-4.9219-0.25782-1.6406-0.38673-3.3046-0.38671-4.9922-0.00002-0.60933,0.082-1.2187,0.24609-1.8281,0.16405-0.60932,0.35155-1.2187,0.5625-1.8281,0.21092-0.60932,0.39842-1.207,0.5625-1.793,0.16405-0.58588,0.24608-1.207,0.24609-1.8633-0.00001-1.2656-0.0938-2.5078-0.28125-3.7266-0.18751-1.2187-0.38673-2.4492-0.59765-3.6914-0.21095-1.2421-0.39845-2.4843-0.5625-3.7266-0.16408-1.2421-0.24611-2.496-0.2461-3.7617-0.00001-0.74993,0.0117-1.4882,0.0352-2.2148,0.0234-0.72648,0.0351-1.4648,0.0352-2.2148-0.00002-2.2499-0.37502-3.9257-1.125-5.0274-0.75001-1.1015-1.6992-1.8984-2.8477-2.3906-1.1484-0.4921-2.3789-0.78507-3.6914-0.87891-1.3125-0.0937-2.543-0.246-3.6914-0.45703-1.1484-0.21085-2.0977-0.60928-2.8477-1.1953-0.75-0.58585-1.125-1.6054-1.125-3.0586,0-1.2655,0.32813-2.2734,0.98438-3.0234,0.65625-0.74991,1.4648-1.3241,2.4258-1.7227,0.96093-0.39834,2.0039-0.65615,3.1289-0.77344,1.125-0.11708,2.1562-0.17568,3.0938-0.17578,2.4375,0.0001,4.8516,0.22276,7.2422,0.66797,2.3906,0.44541,4.8047,0.71494,7.2422,0.8086,0.56248,0.14072,0.91404,0.39853,1.0547,0.77343,0.1406,0.3751,0.17576,0.84385,0.10546,1.4062-0.0703,0.5626-0.1758,1.1954-0.3164,1.8984-0.14065,0.70322-0.21096,1.4532-0.21094,2.25-0.00002,1.547-0.0352,3.0938-0.10547,4.6406-0.0703,1.547-0.10549,2.9532-0.10547,4.2188-0.00002,0.42195,0.0117,1.172,0.0352,2.25,0.0234,1.0782,0.0703,2.2852,0.14062,3.6211,0.0703,1.336,0.18748,2.7423,0.35157,4.2188,0.16404,1.4766,0.37498,2.8126,0.63281,4.0078,0.25779,1.1954,0.5742,2.1915,0.94922,2.9883,0.37498,0.79694,0.84372,1.1954,1.4062,1.1953,0.46872,0.00006,0.90232-0.11713,1.3008-0.35157,0.39841-0.23431,0.78513-0.51556,1.1602-0.84375,0.37497-0.32806,0.73825-0.6679,1.0898-1.0195,0.35153-0.35149,0.73825-0.62103,1.1602-0.80859,0.98434-0.42181,2.0742-0.73822,3.2695-0.94922,1.1953-0.21087,2.3554-0.31634,3.4805-0.31641,0.42183,0.00007,0.84371-0.11712,1.2656-0.35156,0.42184-0.23431,0.84371-0.4804,1.2656-0.73828,0.42183-0.25774,0.86714-0.50384,1.3359-0.73828,0.46871-0.23431,0.98434-0.35149,1.5469-0.35156,0.65621,0.00007,1.3007,0.10553,1.9336,0.3164,0.63277,0.21101,1.2422,0.4571,1.8281,0.73828,0.58589,0.28132,1.1953,0.55085,1.8281,0.8086,0.63277,0.25788,1.2773,0.41022,1.9336,0.45703,0.93745,0.0938,1.8867,0.19928,2.8476,0.3164,0.96089,0.11726,1.8867,0.36335,2.7774,0.73829,0.51557,0.23444,0.89057,0.51569,1.125,0.84375,0.23432,0.32819,0.56244,0.60944,0.98437,0.84375,0.51557,0.32819,1.0078,0.51569,1.4766,0.5625,0.4687,0.0469,0.93744,0.0938,1.4062,0.14062,0.46869,0.0469,0.96088,0.15241,1.4766,0.31641,0.51556,0.16412,1.1015,0.50397,1.7578,1.0195,0.65619,0.56256,1.3476,1.1368,2.0742,1.7226,0.72649,0.586,1.4062,1.2071,2.0391,1.8633,0.63274,0.6563,1.1952,1.3594,1.6875,2.1094,0.49212,0.75006,0.83196,1.5704,1.0195,2.4609,0.32806,1.7813,0.82024,3.75,1.4766,5.9062,0.65618,2.1563,1.4999,3.9844,2.5312,5.4844,0.74993,1.0782,1.371,2.25,1.8633,3.5156,0.49212,1.2657,0.73821,2.5782,0.73829,3.9375zm-7.2422,2.8828c-0.0469-0.60934-0.29304-1.0781-0.73828-1.4062-0.44538-0.32809-0.91413-0.59762-1.4062-0.80859-0.49226-0.2109-0.89069-0.43356-1.1953-0.66797-0.30475-0.23434-0.3399-0.5859-0.10546-1.0547,0.0937-0.37496,0.24602-0.62106,0.45703-0.73828,0.21087-0.11715,0.43352-0.17574,0.66797-0.17578-0.0938-0.84371-0.49226-1.8281-1.1953-2.9531-0.70319-1.125-1.2188-2.1562-1.5469-3.0938-0.28131-0.70308-0.46881-1.3593-0.5625-1.9688-0.0938-0.60933-0.23444-1.1718-0.42188-1.6875-0.18756-0.51557-0.45709-0.99604-0.80859-1.4414-0.35162-0.44527-0.9024-0.9023-1.6523-1.3711-0.56256-0.32807-1.0196-0.58588-1.3711-0.77343-0.35162-0.18745-0.65631-0.38667-0.91406-0.59766-0.25787-0.21089-0.49225-0.48042-0.70313-0.80859-0.21099-0.32808-0.45708-0.82026-0.73828-1.4766-0.2813-0.74994-0.62115-1.2773-1.0195-1.582-0.39849-0.30463-0.8438-0.52729-1.3359-0.66797-0.49224-0.14057-1.0313-0.25775-1.6172-0.35156-0.58599-0.0937-1.1836-0.25775-1.793-0.49219-1.5469-0.56244-3.0235-1.0429-4.4297-1.4414-1.4063-0.39838-2.9532-0.5976-4.6406-0.59766-3.1875,0.00006-5.8711,0.48053-8.0508,1.4414-2.1797,0.96099-3.9727,2.3204-5.3789,4.0781-1.4063,1.7579-2.4727,3.8438-3.1992,6.2578-0.72659,2.4141-1.2071,5.0508-1.4414,7.9102-0.0938,1.125-0.26955,2.25-0.52734,3.375-0.25784,1.125-0.52737,2.2383-0.80859,3.3398-0.28128,1.1016-0.53909,2.2149-0.77344,3.3398-0.2344,1.125-0.35159,2.25-0.35156,3.375-0.00003,0.51565,0.0234,0.87893,0.0703,1.0898,0.0469,0.21096,0.25779,0.50393,0.63281,0.87891,0.79685,0.93752,1.2539,1.9219,1.3711,2.9531,0.11717,1.0313,0.21092,2.0274,0.28125,2.9883,0.0703,0.96096,0.26951,1.8282,0.59766,2.6016,0.3281,0.77345,1.0781,1.3477,2.25,1.7226,0.7031,0.23439,1.2304,0.48049,1.582,0.73828,0.35154,0.25783,0.6445,0.5508,0.87891,0.87891,0.23434,0.32814,0.457,0.69142,0.66797,1.0898,0.21091,0.39845,0.50387,0.83205,0.8789,1.3008,0.98435-0.23437,1.9922-0.39843,3.0234-0.49219,1.0312-0.0937,2.039-0.2578,3.0234-0.49219-0.00004,0.60939,0.29293,1.1016,0.8789,1.4766,0.5859,0.37501,1.2773,0.65626,2.0742,0.84375,0.79684,0.18751,1.6054,0.31642,2.4258,0.38672,0.82027,0.0703,1.4414,0.10548,1.8633,0.10547,0.79683,0.00001,1.6406-0.0351,2.5312-0.10547,0.89057-0.0703,1.746-0.22265,2.5664-0.45703,0.82027-0.23437,1.5937-0.57421,2.3203-1.0195,0.72652-0.4453,1.3007-1.0664,1.7227-1.8633,0.70307-1.2187,1.5351-2.0976,2.4961-2.6367,0.96089-0.53905,1.9218-1.0195,2.8828-1.4414,0.96088-0.42186,1.8515-0.9492,2.6719-1.582,0.82025-0.63279,1.4414-1.6289,1.8633-2.9883,0.51557-1.6406,1.0546-3.3164,1.6172-5.0273,0.56244-1.7109,0.84369-3.457,0.84375-5.2383-0.00006-0.60935-0.0587-1.207-0.17578-1.793-0.11725-0.58591-0.29303-1.1601-0.52734-1.7227,0.56243,0.28128,1.1366,0.63285,1.7226,1.0547,0.58587,0.42191,1.207,0.63284,1.8633,0.63281,0.23431,0.00003,0.41009-0.082,0.52735-0.24609,0.11712-0.16403,0.17571-0.36325,0.17578-0.59766z" fill="#111"/>
  <path id="path3000" d="m596.96,386.2c-0.00008,1.6406-0.55086,2.9414-1.6523,3.9024-1.1016,0.96093-2.4259,1.6875-3.9727,2.1797-1.5469,0.49219-3.1524,0.80859-4.8164,0.94922-1.6641,0.14062-3.0821,0.21094-4.2539,0.21094-1.5469,0-2.8243-0.14063-3.832-0.42187-1.0079-0.28126-1.8868-0.57423-2.6367-0.87891-0.75006-0.30469-1.4063-0.59766-1.9688-0.87891-0.56256-0.28125-1.1485-0.42187-1.7578-0.42187-0.79693,0-1.5821,0.14062-2.3555,0.42187-0.77349,0.28125-1.5586,0.42188-2.3555,0.42188-0.56255,0-1.0196-0.0937-1.3711-0.28125-0.3516-0.1875-0.64457-0.41016-0.8789-0.66797-0.23442-0.25781-0.45708-0.48047-0.66797-0.66797-0.21098-0.1875-0.45708-0.28125-0.73828-0.28125-0.32817,0-0.58598,0.12891-0.77344,0.38672-0.18754,0.25781-0.39848,0.55078-0.63281,0.87891-0.23442,0.32812-0.57426,0.62109-1.0195,0.8789-0.44536,0.25781-1.0899,0.38672-1.9336,0.38672-0.98441,0-1.9454-0.10547-2.8828-0.31641-0.93754-0.21094-1.8985-0.3164-2.8828-0.3164-0.98441,0-1.9571,0.17578-2.918,0.52734-0.96097,0.35156-1.8633,0.52734-2.707,0.52735-0.37503-0.00001-0.65628-0.12891-0.84375-0.38672-0.18753-0.25782-0.39847-0.38672-0.63281-0.38672-0.79691,0-1.6289,0.1875-2.4961,0.5625-0.86721,0.375-1.7461,0.56249-2.6367,0.5625-0.46877-0.00001-0.9258-0.0586-1.3711-0.17578-0.44533-0.11719-0.90236-0.17579-1.3711-0.17578-0.7969-0.00001-1.5938,0.18749-2.3906,0.5625-0.79689,0.37499-1.7813,0.56249-2.9531,0.5625-0.42189-0.00001-1.3477-0.0586-2.7774-0.17579s-2.8945-0.29297-4.3945-0.52734c-1.5-0.23438-2.8477-0.52735-4.043-0.87891s-1.793-0.73828-1.793-1.1602c0-1.2188,0.22266-2.4375,0.66797-3.6562,0.44531-1.2188,0.66797-2.3906,0.66797-3.5156v-0.14062c-0.60938,0-0.96094-0.32812-1.0547-0.98438,0.0937-0.18749,0.2461-0.33983,0.45703-0.45703,0.21094-0.11718,0.4336-0.21093,0.66797-0.28125,0.23438-0.0703,0.44531-0.17577,0.63282-0.3164,0.18749-0.14062,0.28124-0.35156,0.28125-0.63282v-0.28125c1.875,0.18751,3.7148,0.3047,5.5195,0.35157,1.8047,0.0469,3.6914,0.0703,5.6602,0.0703,1.8281,0.00001,3.8554-0.0586,6.082-0.17578,2.2265-0.11718,4.289-0.45703,6.1875-1.0195,1.8984-0.56249,3.4922-1.418,4.7812-2.5664s1.9336-2.7539,1.9336-4.8164v-0.49218-1.125c-0.23441-5.1562-0.4805-10.23-0.73828-15.223-0.25785-4.9922-0.38675-10.066-0.38672-15.223-0.00003-1.3593-0.1055-2.6835-0.31641-3.9726-0.21097-1.289-0.31644-2.5898-0.3164-3.9024-0.00004-1.6406,0.29293-3.2812,0.8789-4.9219,0.58591-1.6406,1.5117-3.0234,2.7774-4.1484-0.0469-0.28118-0.1641-0.4804-0.35157-0.59766-0.18753-0.11712-0.42191-0.19915-0.70312-0.24609-0.28129-0.0468-0.55082-0.0937-0.8086-0.14062-0.25784-0.0468-0.4805-0.11712-0.66796-0.21094-0.28129-0.14056-0.46879-0.46868-0.5625-0.98438-0.0938-0.51555-0.17582-1.078-0.2461-1.6875-0.0703-0.6093-0.14065-1.207-0.21094-1.793-0.0703-0.58586-0.22268-1.0429-0.45703-1.3711,0.1406-1.3593,0.37497-2.6952,0.70313-4.0078,0.32809-1.3124,0.49215-2.6484,0.49219-4.0078-0.00004-0.9843-0.12894-1.7577-0.38672-2.3203-0.25785-0.56241-0.55082-1.0312-0.87891-1.4062-0.32815-0.37491-0.62112-0.71476-0.87891-1.0195-0.25784-0.3046-0.38674-0.69132-0.38671-1.1602-0.00003-0.37492,0.11715-0.72648,0.35156-1.0547l-0.5625-0.0703c-0.46878,0.00008-0.82034,0.11727-1.0547,0.35156-0.2344,0.23446-0.45706,0.49227-0.66797,0.77344-0.21096,0.28133-0.43362,0.53914-0.66797,0.77343-0.2344,0.23446-0.56252,0.35165-0.98437,0.35157-0.32815,0.00008-0.70315-0.0702-1.125-0.21094-0.7969,0.23446-1.5469,0.35165-2.25,0.35156-1.6406,0.00009-3.2696-0.22257-4.8867-0.66797-1.6172-0.44522-3.2461-0.66788-4.8867-0.66797-0.89064,0.00009-1.7578,0.0352-2.6016,0.10547-0.84376,0.0704-1.6875,0.10556-2.5312,0.10547-1.2188,0.00009-2.4375-0.14054-3.6562-0.42187-1.2188-0.28117-2.2969-0.89054-3.2344-1.8281v-0.84375c0-2.4843,0.83203-4.3593,2.4961-5.625,1.664-1.2655,3.6914-1.8983,6.082-1.8984,1.6406,0.0001,3.2578,0.21104,4.8516,0.63282,1.5937,0.42197,3.2109,0.6329,4.8516,0.63281,0.89061,0.00009,1.8281-0.0937,2.8125-0.28125,0.98436-0.18741,1.9922-0.39834,3.0234-0.63281,1.0312-0.23428,2.0742-0.44522,3.1289-0.63282,1.0547-0.1874,2.0976-0.28115,3.1289-0.28125,1.5937,0.0001,3.0937,0.33994,4.5,1.0195,1.4062,0.67979,2.8125,1.3243,4.2188,1.9336l-0.0703,0.5625c-0.00004,0.42197,0.10543,0.80869,0.31641,1.1602,0.21089,0.35166,0.45699,0.70322,0.73828,1.0547,0.28121,0.35166,0.5273,0.70322,0.73828,1.0547,0.2109,0.35165,0.31636,0.73837,0.31641,1.1602-0.00005,0.42196-0.0586,0.83212-0.17579,1.2305-0.11722,0.39853-0.17582,0.80869-0.17578,1.2305-0.00004,1.0313,0.19918,2.0157,0.59766,2.9531,0.39839,0.93758,0.59761,1.9454,0.59766,3.0234-0.00005,1.1251-0.12895,2.2266-0.38672,3.3047-0.25786,1.0782-0.38676,2.1798-0.38672,3.3047-0.00004,1.3594,0.16402,2.7188,0.49219,4.0781,0.32808,1.3594,0.49214,2.7188,0.49218,4.0781-0.00004,1.1251-0.17582,2.2266-0.52734,3.3047-0.35161,1.0782-0.52739,2.1563-0.52734,3.2344-0.00005,0.79694,0.10542,1.5821,0.3164,2.3555,0.2109,0.7735,0.45699,1.5352,0.73828,2.2852,0.28121,0.75005,0.5273,1.5118,0.73828,2.2852,0.2109,0.77349,0.31637,1.5821,0.31641,2.4258v1.4062c-0.00004,0.75004-0.0586,1.4649-0.17578,2.1445-0.11723,0.67973-0.43364,1.3243-0.94922,1.9336,0.23433,0.89067,0.48043,1.8516,0.73828,2.8828,0.25777,1.0313,0.38668,2.0157,0.38672,2.9531-0.00004,0.46879-0.0352,0.97269-0.10547,1.5117-0.0703,0.5391-0.18754,1.0782-0.35156,1.6172-0.16411,0.5391-0.38676,1.0313-0.66797,1.4766-0.28129,0.44534-0.60942,0.80862-0.98437,1.0898,0.60933,1.7813,1.0078,3.586,1.1953,5.4141,0.18745,1.8282,0.32808,3.6563,0.42187,5.4844,0.0468,0.56252,0.14058,1.2891,0.28125,2.1797,0.14058,0.89064,0.28121,1.7696,0.42188,2.6367,0.14058,0.86721,0.26948,1.6641,0.38672,2.3906,0.11714,0.72658,0.17573,1.2305,0.17578,1.5117-0.00005,0.79689-0.14067,1.5703-0.42188,2.3203-0.28129,0.75001-0.42192,1.5234-0.42187,2.3203-0.00005,0.60939,0.14058,1.2539,0.42187,1.9336,0.28121,0.67969,0.79683,1.0195,1.5469,1.0195,0.56245,0,1.0429-0.1289,1.4414-0.38672,0.39839-0.25781,0.83199-0.53906,1.3008-0.84375,0.4687-0.30468,1.0195-0.58593,1.6523-0.84375,0.63276-0.2578,1.4882-0.38671,2.5664-0.38672,1.2187,0.00001,2.3671,0.16407,3.4453,0.49219,1.0781,0.32813,2.2265,0.49219,3.4453,0.49219,0.89057,0,1.7929-0.082,2.707-0.2461,0.914-0.16405,1.8046-0.35155,2.6719-0.5625,0.86712-0.21093,1.746-0.41014,2.6367-0.59765,0.89055-0.18749,1.8046-0.28124,2.7422-0.28125,1.8749,0.00001,3.457,0.53907,4.7461,1.6172,1.289,1.0781,1.9335,2.6719,1.9336,4.7812zm-40.359-87.539c-0.18754-0.18741-0.4102-0.37491-0.66797-0.5625-0.25785-0.18741-0.55082-0.28116-0.87891-0.28125-0.23441,0.00009-0.43363,0.10556-0.59766,0.31641-0.16409,0.21103-0.24612,0.43368-0.24609,0.66797l0.35156,0.84375c0.18747,0.0938,0.32809,0.14071,0.42188,0.14062,0.37496,0.00009,0.69137-0.12882,0.94922-0.38672,0.25777-0.25772,0.48043-0.50381,0.66797-0.73828zm4.2188,19.547c-0.00005-0.37493-0.10551-0.76165-0.31641-1.1602-0.21098-0.39836-0.55082-0.59758-1.0195-0.59766-0.14067,0.00008-0.29301,0.0235-0.45703,0.0703-0.1641,0.0469-0.29301,0.0938-0.38672,0.14062v3.0234c0.37496,0.18757,0.65621,0.28132,0.84375,0.28125,0.46871,0.00007,0.80855-0.19915,1.0195-0.59766,0.2109-0.39836,0.31636-0.78508,0.31641-1.1602z" fill="#111"/>
  <path id="path3002" d="m669.59,375.16c-0.00007,1.2656-0.19929,2.3438-0.59765,3.2344-0.39851,0.89063-0.91414,1.6875-1.5469,2.3906-0.63288,0.70313-1.3594,1.3594-2.1797,1.9688-0.82037,0.60938-1.6524,1.2656-2.4961,1.9688-0.65631,0.56251-1.2422,0.98438-1.7578,1.2656-0.51569,0.28125-1.0196,0.51562-1.5117,0.70312-0.49225,0.1875-1.0079,0.375-1.5469,0.5625-0.53912,0.1875-1.1602,0.44532-1.8633,0.77344-0.93755,0.46875-1.7227,0.90234-2.3555,1.3008-0.63286,0.39844-1.2657,0.76172-1.8984,1.0898-0.63287,0.32813-1.3243,0.59766-2.0742,0.8086-0.75005,0.21093-1.6876,0.38671-2.8125,0.52734-1.875,0.23437-3.7618,0.51562-5.6602,0.84375-1.8985,0.32812-3.7852,0.49218-5.6602,0.49219-0.37504-0.00001-0.76176-0.082-1.1602-0.2461-0.39847-0.16406-0.85551-0.32812-1.3711-0.49218-0.51566-0.16407-1.0899-0.32813-1.7227-0.49219-0.63285-0.16406-1.3946-0.2461-2.2852-0.24609-0.93753-0.00001-1.6875-0.14063-2.25-0.42188-0.56253-0.28125-1.0664-0.60938-1.5117-0.98437-0.44534-0.375-0.90237-0.78516-1.3711-1.2305-0.46878-0.44531-1.0782-0.83203-1.8281-1.1602-2.8125-1.2656-5.2032-2.7891-7.1719-4.5703-1.9688-1.7812-3.6563-3.7734-5.0625-5.9766-1.4063-2.2031-2.5781-4.5937-3.5156-7.1719-0.93751-2.5781-1.7344-5.2734-2.3906-8.0859-0.51563-1.9687-0.77344-3.9375-0.77344-5.9062,0-2.5781,0.60937-4.9687,1.8281-7.1719-0.46876-1.3125-0.70313-2.5781-0.70313-3.7969,0-0.89058,0.25781-2.2148,0.77344-3.9726,0.51562-1.7578,1.1836-3.5273,2.0039-5.3086,0.8203-1.7812,1.7109-3.3867,2.6719-4.8164,0.96093-1.4296,1.8633-2.3085,2.707-2.6367,0.65624-0.23432,1.1133-0.43353,1.3711-0.59766,0.25779-0.164,0.3867-0.62103,0.38672-1.3711-0.00002-0.56244,0.22264-1.0312,0.66796-1.4062,0.4453-0.37494,0.98436-0.67962,1.6172-0.91406,0.63279-0.23431,1.2656-0.44525,1.8984-0.63282,0.63279-0.18743,1.1601-0.37493,1.582-0.5625,1.7344-0.84368,3.3867-1.5585,4.957-2.1445,1.5703-0.58587,3.1406-1.078,4.7109-1.4766,1.5703-0.39837,3.1992-0.69134,4.8867-0.87891,1.6875-0.18743,3.4922-0.28118,5.4141-0.28125,1.0312,0.00007,2.039,0.1407,3.0234,0.42188,0.98433,0.28132,1.9335,0.6446,2.8476,1.0898,0.91402,0.44538,1.8164,0.93757,2.707,1.4766,0.89057,0.53914,1.7578,1.0665,2.6016,1.582h-0.0703c0.70307,0.0938,1.371,0.29303,2.0039,0.59765,0.63276,0.30476,1.3007,0.50397,2.0039,0.59766,0.65619,0.79694,1.5117,1.5587,2.5664,2.2852,1.0546,0.72663,2.0859,1.4884,3.0938,2.2852,1.0078,0.79694,1.8749,1.6524,2.6016,2.5664,0.72649,0.91412,1.0898,1.9571,1.0898,3.1289-0.00007,0.18756-0.0118,0.37506-0.0352,0.5625-0.0235,0.18756-0.0587,0.3985-0.10546,0.63282l0.28125-0.35157c0.18743,0.14068,0.36321,0.37506,0.52734,0.70313,0.16399,0.32818,0.31634,0.69146,0.45703,1.0898,0.14056,0.39849,0.25775,0.79693,0.35156,1.1953,0.0937,0.39849,0.164,0.7149,0.21094,0.94922,0.37493,0.60943,0.87884,1.1016,1.5117,1.4766,0.63274,0.37504,1.1366,0.89067,1.5117,1.5469-0.46882,0.4688-0.7032,1.0782-0.70313,1.8281-0.00007,0.79692,0.16399,1.5821,0.49219,2.3555,0.32805,0.77348,0.49212,1.5586,0.49219,2.3555-0.00007,0.93754-0.047,1.8399-0.14063,2.707-0.0938,0.86723-0.14069,1.7696-0.14062,2.707-0.00007,0.70316-0.2696,1.2422-0.8086,1.6172-0.53913,0.37504-1.1251,0.70316-1.7578,0.98438-0.63288,0.28128-1.2071,0.56253-1.7226,0.84375-0.5157,0.28128-0.77351,0.67972-0.77344,1.1953-0.00007,0.37503-0.22272,0.55081-0.66797,0.52734-0.44538-0.0234-0.80866-0.0351-1.0898-0.0351-2.0626,0.00003-4.1134-0.25778-6.1524-0.77344-2.0391-0.51559-4.0665-0.7734-6.082-0.77344-2.2032,0.00004-4.3829,0.15238-6.5391,0.45703-2.1563,0.30472-4.336,0.45707-6.5391,0.45704-1.6407,0.00003-3.2696-0.0469-4.8867-0.14063-1.6172-0.0937-3.2461-0.14059-4.8867-0.14062-0.42191,0.00003-1.2188,0.0821-2.3906,0.24609-1.1719,0.16409-2.4024,0.37503-3.6914,0.63281-1.2891,0.25784-2.5196,0.56253-3.6914,0.91406-1.1719,0.3516-1.9922,0.69144-2.4609,1.0195-0.0469,0.2344-0.0703,0.56252-0.0703,0.98437-0.00002,2.2032,0.64451,4.4766,1.9336,6.8203,1.289,2.3438,2.9883,4.4766,5.0977,6.3984,2.1094,1.9219,4.4765,3.5156,7.1016,4.7812,2.625,1.2656,5.2734,1.8984,7.9453,1.8984,1.5468,0.00001,3.082,0.0586,4.6055,0.17578,1.5234,0.11719,3.0117,0.45704,4.4648,1.0195,1.2656-0.60937,2.4257-1.3125,3.4805-2.1094,1.0546-0.79687,2.0742-1.6406,3.0586-2.5312,0.98432-0.89062,1.9453-1.8047,2.8828-2.7422,0.93744-0.93749,1.8984-1.875,2.8828-2.8125,0.18743-0.18748,0.64447-0.36327,1.3711-0.52735,0.7265-0.16404,1.5116-0.30467,2.3555-0.42187,0.84368-0.11717,1.6523-0.21092,2.4258-0.28125,0.77337-0.0703,1.3007-0.10545,1.582-0.10547,1.0781,0.00002,2.0859,0.16408,3.0234,0.49219,0.28118,1.0781,0.4218,2.1328,0.42187,3.1641zm-10.547-28.547c-0.00006-0.70309-0.11725-1.3828-0.35156-2.0391-0.23444-0.6562-0.42194-1.3359-0.5625-2.0391-0.23444-1.3124-0.35163-2.5898-0.35157-3.832-0.00006-1.2421-0.18756-2.496-0.5625-3.7617h-0.0703c-0.00006,0.28131-0.0938,0.55084-0.28125,0.80859-0.18756,0.25787-0.44537,0.38678-0.77344,0.38672-0.56255,0.00006-1.1016-0.14057-1.6172-0.42187-0.51569-0.2812-0.961-0.63276-1.3359-1.0547-1.7813-0.79682-3.3868-1.5468-4.8164-2.25-1.4297-0.70307-2.8594-1.3242-4.2891-1.8633-1.4297-0.539-2.9532-0.96088-4.5703-1.2656-1.6172-0.30462-3.4805-0.45697-5.5898-0.45703-0.18753,0.00006-0.36331,0.0118-0.52734,0.0352-0.1641,0.0235-0.31644,0.10553-0.45703,0.24609l0.35156,0.77344-0.5625,0.14063c-1.2657,0.23443-2.3086,0.45709-3.1289,0.66796-0.82034,0.211-1.5586,0.50397-2.2148,0.87891-0.65628,0.37506-1.3008,0.83209-1.9336,1.3711-0.63284,0.53912-1.4414,1.2305-2.4258,2.0742-0.46878,0.42193-0.97268,0.73834-1.5117,0.94922-0.53909,0.21099-1.0782,0.39849-1.6172,0.5625-0.53908,0.16412-1.0547,0.3399-1.5469,0.52735-0.4922,0.18755-0.90236,0.49224-1.2305,0.91406-0.32815,1.1719-0.80862,2.3086-1.4414,3.4102-0.63283,1.1016-0.94924,2.2618-0.94922,3.4805-0.00002,0.70317,0.29295,1.3243,0.87891,1.8633,0.58592,0.53911,1.3359,0.99614,2.25,1.3711,0.91404,0.37504,1.9218,0.70316,3.0234,0.98437,1.1015,0.28129,2.1914,0.49223,3.2695,0.63282,1.0781,0.14066,2.0742,0.24613,2.9883,0.3164,0.91403,0.0704,1.6289,0.10551,2.1445,0.10547,1.7812,0.00004,3.539-0.17574,5.2734-0.52734,1.7343-0.35153,3.4921-0.52731,5.2734-0.52735,1.8281,0.00004,3.6562,0.0821,5.4844,0.2461,1.8281,0.1641,3.6562,0.24613,5.4844,0.24609,0.4687,0.00004,1.1718-0.0234,2.1094-0.0703,0.93744-0.0468,1.8632-0.17574,2.7773-0.38672,0.91401-0.2109,1.7109-0.51558,2.3906-0.91406,0.67962-0.3984,1.0195-0.92574,1.0195-1.582z" fill="#111"/>
 </g>
</svg>
