<?xml version="1.0" encoding="UTF-8" standalone="no"?>
<!-- Created with Inkscape (http://www.inkscape.org/) -->

<svg
   xmlns:dc="http://purl.org/dc/elements/1.1/"
   xmlns:cc="http://creativecommons.org/ns#"
   xmlns:rdf="http://www.w3.org/1999/02/22-rdf-syntax-ns#"
   xmlns:svg="http://www.w3.org/2000/svg"
   xmlns="http://www.w3.org/2000/svg"
   xmlns:sodipodi="http://sodipodi.sourceforge.net/DTD/sodipodi-0.dtd"
   xmlns:inkscape="http://www.inkscape.org/namespaces/inkscape"
   width="556.14197"
   height="115.84511"
   id="svg2985"
   version="1.1"
   inkscape:version="0.48.4 r9939"
   sodipodi:docname="New document 2">
  <defs
     id="defs3" />
  <sodipodi:namedview
     inkscape:document-units="mm"
     id="base"
     pagecolor="#ffffff"
     bordercolor="#666666"
     borderopacity="1.0"
     inkscape:pageopacity="0.0"
     inkscape:pageshadow="2"
     inkscape:zoom="0.97207031"
     inkscape:cx="138.83966"
     inkscape:cy="1.2194875"
     inkscape:current-layer="layer1"
     showgrid="false"
     units="mm"
     fit-margin-left="2"
     fit-margin-top="2"
     fit-margin-bottom="2"
     fit-margin-right="2"
     inkscape:window-width="1600"
     inkscape:window-height="838"
     inkscape:window-x="-8"
     inkscape:window-y="-8"
     inkscape:window-maximized="1" />
  <metadata
     id="metadata4">
    <rdf:RDF>
      <cc:Work
         rdf:about="">
        <dc:format>image/svg+xml</dc:format>
        <dc:type
           rdf:resource="http://purl.org/dc/dcmitype/StillImage" />
        <dc:title></dc:title>
      </cc:Work>
    </rdf:RDF>
  </metadata>
  <g
     inkscape:label="Layer 1"
     inkscape:groupmode="layer"
     id="layer1"
     transform="translate(-50.678118,-417.73657)">
    <path
       inkscape:connector-curvature="0"
       id="path2996"
       style="font-size:144px;font-style:normal;font-variant:normal;font-weight:normal;font-stretch:normal;line-height:125%;letter-spacing:0px;word-spacing:0px;fill:#666666;fill-opacity:1;stroke:none;font-family:cmbx9;-inkscape-font-specification:cmbx9"
       d="m 58.749107,525.65131 0,-7.66407 9.84375,0 0,-48.65625 -10.828125,0 0,-7.59375 10.828125,0 0,-15.11718 c -1.7e-5,-3.9843 1.019513,-7.40617 3.058594,-10.26563 2.03904,-2.85928 4.699194,-5.13272 7.980469,-6.82031 3.281218,-1.6874 6.726527,-2.89443 10.335937,-3.6211 3.609333,-0.72646 7.335892,-1.08974 11.179683,-1.08984 2.67183,1e-4 5.20307,0.52745 7.59375,1.58203 2.39057,1.05479 4.35932,2.58994 5.90625,4.60547 1.54682,2.01572 2.32025,4.33603 2.32032,6.96094 -7e-5,2.67196 -0.91413,4.92196 -2.74219,6.75 -1.82819,1.8282 -4.03131,2.74226 -6.60938,2.74219 -2.67192,7e-5 -4.92192,-0.91399 -6.75,-2.74219 -1.828168,-1.82804 -2.742229,-4.07804 -2.742183,-6.75 -4.6e-5,-2.99991 0.890578,-5.24991 2.671873,-6.75 -0.2813,-0.14053 -0.75005,-0.21084 -1.406248,-0.21094 -3.04692,1e-4 -5.742229,0.6915 -8.085937,2.07422 -2.343788,1.3829 -4.101598,3.30478 -5.273438,5.76562 -1.171908,2.46103 -1.757845,5.19149 -1.757812,8.19141 l 0,14.69531 17.718745,0 0,7.59375 -16.874995,0 0,48.65625 12.234375,0 0,7.66407 z" />
    <path
       inkscape:connector-curvature="0"
       id="path2998"
       style="font-size:144px;font-style:normal;font-variant:normal;font-weight:normal;font-stretch:normal;line-height:125%;letter-spacing:0px;word-spacing:0px;fill:#666666;fill-opacity:1;stroke:none;font-family:cmbx9;-inkscape-font-specification:cmbx9"
       d="m 108.24911,494.29193 c -1e-5,-5.43746 0.97265,-10.26558 2.91797,-14.48437 1.9453,-4.2187 4.62889,-7.75776 8.05078,-10.61719 3.42185,-2.85932 7.41794,-5.039 11.98828,-6.53906 4.57028,-1.49994 9.52731,-2.24994 14.87109,-2.25 6.89058,6e-5 13.23042,1.32428 19.01953,3.97265 5.789,2.6485 10.35931,6.5274 13.71094,11.63672 3.35148,5.10942 5.02726,11.20316 5.02734,18.28125 -8e-5,5.25003 -1.03132,9.94924 -3.09375,14.09766 -2.06257,4.14845 -4.81647,7.52344 -8.26171,10.125 -3.44538,2.60156 -7.42975,4.58203 -11.95313,5.9414 -4.52349,1.35938 -9.33989,2.03907 -14.44922,2.03907 -5.10941,0 -9.92581,-0.67969 -14.44922,-2.03907 -4.52346,-1.35937 -8.53127,-3.36327 -12.02343,-6.01172 -3.4922,-2.64842 -6.25783,-6.02342 -8.29688,-10.125 -2.03907,-4.10154 -3.0586,-8.77731 -3.05859,-14.02734 z m 37.82812,25.45313 c 5.57808,0 9.66792,-1.23047 12.26953,-3.69141 2.60151,-2.46093 4.20698,-5.49608 4.81641,-9.10547 0.60931,-3.60935 0.914,-8.46091 0.91406,-14.55469 -6e-5,-5.71871 -0.35162,-10.33589 -1.05469,-13.85156 -0.70318,-3.51557 -2.36724,-6.38666 -4.99218,-8.61328 -2.62505,-2.2265 -6.60943,-3.33978 -11.95313,-3.33984 -5.39066,6e-5 -9.41019,1.11334 -12.05859,3.33984 -2.64847,2.22662 -4.32425,5.09771 -5.02735,8.61328 -0.70314,3.51567 -1.05471,8.13285 -1.05468,13.85156 -3e-5,4.59378 0.15232,8.34378 0.45703,11.25 0.30466,2.90627 1.0195,5.58986 2.14453,8.05078 1.12497,2.46095 2.92966,4.41798 5.41406,5.8711 2.48434,1.45313 5.85934,2.17969 10.125,2.17969 z" />
    <path
       inkscape:connector-curvature="0"
       id="path3000"
       style="font-size:144px;font-style:normal;font-variant:normal;font-weight:normal;font-stretch:normal;line-height:125%;letter-spacing:0px;word-spacing:0px;fill:#666666;fill-opacity:1;stroke:none;font-family:cmbx9;-inkscape-font-specification:cmbx9"
       d="m 193.46786,494.29193 c -1e-5,-5.43746 0.97265,-10.26558 2.91797,-14.48437 1.9453,-4.2187 4.62889,-7.75776 8.05078,-10.61719 3.42185,-2.85932 7.41794,-5.039 11.98828,-6.53906 4.57028,-1.49994 9.52731,-2.24994 14.87109,-2.25 6.89058,6e-5 13.23042,1.32428 19.01953,3.97265 5.789,2.6485 10.35931,6.5274 13.71094,11.63672 3.35148,5.10942 5.02726,11.20316 5.02734,18.28125 -8e-5,5.25003 -1.03132,9.94924 -3.09375,14.09766 -2.06257,4.14845 -4.81647,7.52344 -8.26171,10.125 -3.44538,2.60156 -7.42975,4.58203 -11.95313,5.9414 -4.52349,1.35938 -9.33989,2.03907 -14.44922,2.03907 -5.10941,0 -9.92581,-0.67969 -14.44922,-2.03907 -4.52346,-1.35937 -8.53127,-3.36327 -12.02343,-6.01172 -3.4922,-2.64842 -6.25783,-6.02342 -8.29688,-10.125 -2.03907,-4.10154 -3.0586,-8.77731 -3.05859,-14.02734 z m 37.82812,25.45313 c 5.57808,0 9.66792,-1.23047 12.26953,-3.69141 2.60151,-2.46093 4.20698,-5.49608 4.81641,-9.10547 0.60931,-3.60935 0.914,-8.46091 0.91406,-14.55469 -6e-5,-5.71871 -0.35162,-10.33589 -1.05469,-13.85156 -0.70318,-3.51557 -2.36724,-6.38666 -4.99218,-8.61328 -2.62505,-2.2265 -6.60943,-3.33978 -11.95313,-3.33984 -5.39066,6e-5 -9.41019,1.11334 -12.05859,3.33984 -2.64847,2.22662 -4.32425,5.09771 -5.02735,8.61328 -0.70314,3.51567 -1.05471,8.13285 -1.05468,13.85156 -3e-5,4.59378 0.15232,8.34378 0.45703,11.25 0.30466,2.90627 1.0195,5.58986 2.14453,8.05078 1.12497,2.46095 2.92966,4.41798 5.41406,5.8711 2.48434,1.45313 5.85934,2.17969 10.125,2.17969 z" />
    <path
       inkscape:connector-curvature="0"
       id="path3002"
       style="font-size:144px;font-style:normal;font-variant:normal;font-weight:normal;font-stretch:normal;line-height:125%;letter-spacing:0px;word-spacing:0px;fill:#111111;fill-opacity:1;stroke:none;font-family:cmbx9;-inkscape-font-specification:cmbx9"
       d="m 274.09286,525.65131 0,-7.66407 c 9.14061,10e-6 14.03904,-0.42186 14.69531,-1.26562 l 37.26562,-89.01563 c 0.89057,-1.92177 2.34369,-2.88271 4.35938,-2.88281 l 3.44531,0 c 1.96868,1e-4 3.44525,0.96104 4.42969,2.88281 l 37.75781,90.28125 14.13281,0 0,7.66407 -49.85156,0 0,-7.66407 13.28906,0 -8.08593,-19.40625 -39.30469,0 -7.66406,18.28125 c -3e-5,0.46876 1.24215,0.70314 3.72656,0.70313 2.99996,0.28126 6.0234,0.42188 9.07031,0.42187 l 0,7.66407 z m 35.29687,-34.73438 32.97656,0 -16.45312,-39.30469 z" />
    <path
       inkscape:connector-curvature="0"
       id="path3004"
       style="font-size:144px;font-style:normal;font-variant:normal;font-weight:normal;font-stretch:normal;line-height:125%;letter-spacing:0px;word-spacing:0px;fill:#111111;fill-opacity:1;stroke:none;font-family:cmbx9;-inkscape-font-specification:cmbx9"
       d="m 403.83504,525.65131 0,-87.11719 c -10e-6,-1.78116 -0.91407,-2.89444 -2.74218,-3.33985 -1.82814,-0.44522 -4.17189,-0.66787 -7.03125,-0.66796 l 0,-7.66407 26.36718,-1.125 0,41.76563 c 6.28122,-4.45306 13.57027,-6.67962 21.86719,-6.67969 6.65619,7e-5 12.64447,1.32428 17.96485,3.97266 5.32023,2.64849 9.4921,6.45708 12.51562,11.42578 3.02335,4.96879 4.53507,10.78129 4.53516,17.4375 -9e-5,10.40627 -3.58603,18.48048 -10.75782,24.22265 -7.17194,5.74219 -16.03131,8.61329 -26.57812,8.61329 -4.07817,0 -7.99223,-0.77344 -11.74219,-2.32032 -3.75003,-1.54687 -7.03128,-3.70312 -9.84375,-6.46875 l -6.60937,7.94532 z m 17.4375,-15.25782 c 2.06247,3.04689 4.582,5.46095 7.5586,7.24219 2.97652,1.78126 6.22261,2.67188 9.73828,2.67188 5.34369,0 9.42182,-1.21875 12.23437,-3.65625 2.81244,-2.43749 4.64056,-5.57811 5.48438,-9.42188 0.84368,-3.84373 1.26556,-8.46091 1.26562,-13.85156 -6e-5,-8.15621 -1.05475,-14.5898 -3.16406,-19.30078 -2.10944,-4.71088 -6.77349,-7.06635 -13.99219,-7.06641 -3.65629,6e-5 -7.20707,0.76178 -10.65234,2.28516 -3.44535,1.52349 -6.26957,3.69146 -8.47266,6.5039 z" />
    <path
       inkscape:connector-curvature="0"
       id="path3006"
       style="font-size:144px;font-style:normal;font-variant:normal;font-weight:normal;font-stretch:normal;line-height:125%;letter-spacing:0px;word-spacing:0px;fill:#111111;fill-opacity:1;stroke:none;font-family:cmbx9;-inkscape-font-specification:cmbx9"
       d="m 486.38973,525.65131 0,-7.66407 9.84375,0 0,-79.45312 c -10e-6,-1.78116 -0.91408,-2.89444 -2.74219,-3.33985 -1.82813,-0.44522 -4.19532,-0.66787 -7.10156,-0.66796 l 0,-7.66407 26.36719,-1.125 0,92.25 9.77344,0 0,7.66407 z" />
    <path
       inkscape:connector-curvature="0"
       id="path3008"
       style="font-size:144px;font-style:normal;font-variant:normal;font-weight:normal;font-stretch:normal;line-height:125%;letter-spacing:0px;word-spacing:0px;fill:#111111;fill-opacity:1;stroke:none;font-family:cmbx9;-inkscape-font-specification:cmbx9"
       d="m 531.24911,493.23724 c -10e-6,-6.84371 1.61718,-12.74995 4.85156,-17.71875 3.23436,-4.96869 7.65233,-8.73041 13.25391,-11.28515 5.60153,-2.55463 11.75387,-3.83197 18.45703,-3.83203 10.17182,6e-5 18.03509,2.66021 23.58984,7.98046 5.55462,5.32037 8.33196,13.04302 8.33203,23.16797 -7e-5,1.78129 -0.84382,2.83597 -2.53125,3.16407 l -46.26562,0 c -3e-5,5.20315 0.6445,9.62111 1.93359,13.2539 1.28904,3.63283 3.49216,6.50392 6.60938,8.61328 3.11715,2.10939 7.2773,3.16407 12.48046,3.16407 2.81246,0 5.57808,-0.43359 8.29688,-1.30079 2.71869,-0.86717 5.14447,-2.21483 7.27734,-4.04296 2.13275,-1.82812 3.66791,-4.03124 4.60547,-6.60938 0.37494,-1.17185 1.19525,-1.75779 2.46094,-1.75781 l 2.60156,0 c 0.70306,2e-5 1.30071,0.30471 1.79297,0.91406 0.49212,0.60939 0.73821,1.26564 0.73828,1.96875 -7e-5,0.28127 -0.0118,0.4922 -0.0351,0.63281 -0.0235,0.14064 -0.0587,0.28127 -0.10547,0.42188 -1.31257,3.70314 -3.5157,6.8086 -6.60938,9.3164 -3.09381,2.50782 -6.62115,4.33594 -10.58203,5.48438 -3.96099,1.14844 -8.00395,1.72266 -12.12891,1.72266 -5.10941,0 -10.00784,-0.67969 -14.69531,-2.03907 -4.68752,-1.35937 -8.85939,-3.4453 -12.51562,-6.25781 -3.65627,-2.81249 -6.53908,-6.33983 -8.64844,-10.58203 -2.10938,-4.24217 -3.16407,-9.03513 -3.16406,-14.37891 z m 19.6875,-4.28906 34.17187,0 c -6e-5,-3.93746 -0.57427,-7.60542 -1.72265,-11.00391 -1.1485,-3.39838 -3.01178,-6.14057 -5.58985,-8.22656 -2.57817,-2.08588 -5.90629,-3.12884 -9.98437,-3.1289 -5.95316,6e-5 -10.25394,2.12115 -12.90235,6.36328 -2.64846,4.24223 -3.97268,9.57426 -3.97265,15.99609 z" />
  </g>
</svg>
