<?xml version="1.0" encoding="UTF-8" standalone="no"?>
<!-- Created with Inkscape (http://www.inkscape.org/) -->
<svg id="svg2" xmlns="http://www.w3.org/2000/svg" viewBox="0 0 492.08 168.58" version="1.1">
  <g id="layer1" transform="translate(-272.15249,-623.14322)">
    <g id="g3998" transform="matrix(1.8825381,0,0,1.8825381,-97.967371,-685.29388)">
      <g id="g4013" stroke-linejoin="round" stroke-linecap="round" stroke-dasharray="none" stroke-miterlimit="4" fill="none">
        <g id="f" transform="matrix(1.3198108,0,0,1.3198108,-56.26564,-174.60933)" stroke="#666" stroke-width="6">
          <path id="f1" d="m195,414.09,0-45c0-15,15-15,15-15" transform="translate(0,308.2677)" />
          <path id="f2" d="m195,384.09,15,0,0,0" transform="translate(0,308.2677)" />
        </g>
        <path id="o1" d="m240.69,739.18c-19.797,0-19.797,39.594,0,39.594s19.797-39.594,0-39.594z" stroke="#666" stroke-width="7.91886473" />
        <path id="o2" d="m280.37,739.76c-19.797,0-19.797,39.594,0,39.594s19.797-39.594,0-39.594z" stroke="#666" stroke-width="7.91886473" />
        <path class="draggable" id="a" d="m301.4,778.77,32.995-79.189,20.608,80.516-40.405-7.9263,0,0" stroke="#111111" stroke-width="7.91886473" style="cursor:pointer" />
        <g id="b" transform="matrix(1.3198108,0,0,1.3198108,-58.90527,-174.60933)" stroke="#111111" stroke-width="6">
          <path id="b1" d="m331.5,692.93c-15,0-15,30,0,30s15-30,0-30z" />
          <path id="b2" d="m320.24,707.42,0-45,0,0" />
        </g>
        <path id="l" d="m404.33,699.53,0,59.391c0,20.848,14.55,20.162,14.55,20.162" stroke="#111111" stroke-width="7.91886473" />
        <g id="e" transform="translate(2.483844,0.46089652)" stroke="#111111" stroke-width="7.91886473">
          <path id="e1" d="m451,752.56c-11.64,6.2217-11.64,6.2217-11.64,6.2217" />
          <path id="e2" d="m437.83,778.77c-19.797,0-19.797-39.594,0-39.594,13.198,0,13.198,13.198,13.198,13.198" />
        </g>
      </g>
    </g>
  </g>
</svg>
