<?xml version="1.0" encoding="UTF-8" standalone="no"?>
<!-- Created with Inkscape (http://www.inkscape.org/) -->
<svg id="svg2" xmlns="http://www.w3.org/2000/svg" viewBox="0 0 556.14 115.85" version="1.1">
  <g id="layer1" transform="translate(-50.678118,-417.73657)">
    <path id="f" d="m58.749,525.65,0-7.6641,9.8438,0,0-48.656-10.828,0,0-7.5938,10.828,0,0-15.117c-0.000017-3.9843,1.0195-7.4062,3.0586-10.266,2.039-2.8593,4.6992-5.1327,7.9805-6.8203,3.2812-1.6874,6.7265-2.8944,10.336-3.6211,3.6093-0.72646,7.3359-1.0897,11.18-1.0898,2.6718,0.0001,5.2031,0.52745,7.5938,1.582,2.3906,1.0548,4.3593,2.5899,5.9062,4.6055,1.5468,2.0157,2.3202,4.336,2.3203,6.9609-0.00007,2.672-0.91413,4.922-2.7422,6.75-1.8282,1.8282-4.0313,2.7423-6.6094,2.7422-2.6719,0.00007-4.9219-0.91399-6.75-2.7422-1.8282-1.828-2.7422-4.078-2.7422-6.75-0.000046-2.9999,0.89058-5.2499,2.6719-6.75-0.2813-0.14053-0.75005-0.21084-1.4062-0.21094-3.0469,0.0001-5.7422,0.6915-8.0859,2.0742-2.3438,1.3829-4.1016,3.3048-5.2734,5.7656-1.1719,2.461-1.7578,5.1915-1.7578,8.1914v14.695h17.719v7.5938h-16.875v48.656h12.234v7.6641z" fill="#666" />
    <path id="o1" d="m108.25,494.29c-0.00001-5.4375,0.97265-10.266,2.918-14.484,1.9453-4.2187,4.6289-7.7578,8.0508-10.617,3.4218-2.8593,7.4179-5.039,11.988-6.5391,4.5703-1.4999,9.5273-2.2499,14.871-2.25,6.8906,0.00006,13.23,1.3243,19.02,3.9726,5.789,2.6485,10.359,6.5274,13.711,11.637,3.3515,5.1094,5.0273,11.203,5.0273,18.281-0.00008,5.25-1.0313,9.9492-3.0938,14.098-2.0626,4.1484-4.8165,7.5234-8.2617,10.125-3.4454,2.6016-7.4298,4.582-11.953,5.9414-4.5235,1.3594-9.3399,2.0391-14.449,2.0391-5.1094,0-9.9258-0.67969-14.449-2.0391-4.5235-1.3594-8.5313-3.3633-12.023-6.0117-3.4922-2.6484-6.2578-6.0234-8.2969-10.125-2.0391-4.1015-3.0586-8.7773-3.0586-14.027zm37.828,25.453c5.5781,0,9.6679-1.2305,12.27-3.6914,2.6015-2.4609,4.207-5.4961,4.8164-9.1055,0.60931-3.6094,0.914-8.4609,0.91406-14.555-0.00006-5.7187-0.35162-10.336-1.0547-13.852-0.70318-3.5156-2.3672-6.3867-4.9922-8.6133-2.625-2.2265-6.6094-3.3398-11.953-3.3398-5.3907,0.00006-9.4102,1.1133-12.059,3.3398-2.6485,2.2266-4.3242,5.0977-5.0274,8.6133-0.70314,3.5157-1.0547,8.1328-1.0547,13.852-0.00003,4.5938,0.15232,8.3438,0.45703,11.25,0.30466,2.9063,1.0195,5.5899,2.1445,8.0508,1.125,2.461,2.9297,4.418,5.4141,5.8711,2.4843,1.4531,5.8593,2.1797,10.125,2.1797z" fill="#666" />
    <path id="o2" d="m193.47,494.29c-0.00001-5.4375,0.97265-10.266,2.918-14.484,1.9453-4.2187,4.6289-7.7578,8.0508-10.617,3.4218-2.8593,7.4179-5.039,11.988-6.5391,4.5703-1.4999,9.5273-2.2499,14.871-2.25,6.8906,0.00006,13.23,1.3243,19.02,3.9726,5.789,2.6485,10.359,6.5274,13.711,11.637,3.3515,5.1094,5.0273,11.203,5.0273,18.281-0.00008,5.25-1.0313,9.9492-3.0938,14.098-2.0626,4.1484-4.8165,7.5234-8.2617,10.125-3.4454,2.6016-7.4298,4.582-11.953,5.9414-4.5235,1.3594-9.3399,2.0391-14.449,2.0391-5.1094,0-9.9258-0.67969-14.449-2.0391-4.5235-1.3594-8.5313-3.3633-12.023-6.0117-3.4922-2.6484-6.2578-6.0234-8.2969-10.125-2.0391-4.1015-3.0586-8.7773-3.0586-14.027zm37.828,25.453c5.5781,0,9.6679-1.2305,12.27-3.6914,2.6015-2.4609,4.207-5.4961,4.8164-9.1055,0.60931-3.6094,0.914-8.4609,0.91406-14.555-0.00006-5.7187-0.35162-10.336-1.0547-13.852-0.70318-3.5156-2.3672-6.3867-4.9922-8.6133-2.625-2.2265-6.6094-3.3398-11.953-3.3398-5.3907,0.00006-9.4102,1.1133-12.059,3.3398-2.6485,2.2266-4.3242,5.0977-5.0274,8.6133-0.70314,3.5157-1.0547,8.1328-1.0547,13.852-0.00003,4.5938,0.15232,8.3438,0.45703,11.25,0.30466,2.9063,1.0195,5.5899,2.1445,8.0508,1.125,2.461,2.9297,4.418,5.4141,5.8711,2.4843,1.4531,5.8593,2.1797,10.125,2.1797z" fill="#666" />
    <path id="a" d="m274.09,525.65,0-7.6641c9.1406,0.00001,14.039-0.42186,14.695-1.2656l37.266-89.016c0.89057-1.9218,2.3437-2.8827,4.3594-2.8828h3.4453c1.9687,0.0001,3.4452,0.96104,4.4297,2.8828l37.758,90.281h14.133v7.6641h-49.852v-7.6641h13.289l-8.0859-19.406h-39.305l-7.6641,18.281c-0.00003,0.46876,1.2422,0.70314,3.7266,0.70313,3,0.28126,6.0234,0.42188,9.0703,0.42187v7.6641zm35.297-34.734,32.977,0-16.453-39.305z" fill="#111" />
    <path id="b" d="m403.84,525.65,0-87.117c-0.00001-1.7812-0.91407-2.8944-2.7422-3.3398-1.8281-0.44522-4.1719-0.66787-7.0312-0.66796v-7.6641l26.367-1.125v41.766c6.2812-4.4531,13.57-6.6796,21.867-6.6797,6.6562,0.00007,12.644,1.3243,17.965,3.9727,5.3202,2.6485,9.4921,6.4571,12.516,11.426,3.0234,4.9688,4.5351,10.781,4.5352,17.438-0.00009,10.406-3.586,18.48-10.758,24.223-7.1719,5.7422-16.031,8.6133-26.578,8.6133-4.0782,0-7.9922-0.77344-11.742-2.3203-3.75-1.5469-7.0313-3.7031-9.8438-6.4688l-6.6094,7.9453zm17.438-15.258c2.0625,3.0469,4.582,5.461,7.5586,7.2422,2.9765,1.7813,6.2226,2.6719,9.7383,2.6719,5.3437,0,9.4218-1.2188,12.234-3.6562,2.8124-2.4375,4.6406-5.5781,5.4844-9.4219,0.84368-3.8437,1.2656-8.4609,1.2656-13.852-0.00006-8.1562-1.0548-14.59-3.1641-19.301-2.1094-4.7109-6.7735-7.0664-13.992-7.0664-3.6563,0.00006-7.2071,0.76178-10.652,2.2852-3.4454,1.5235-6.2696,3.6915-8.4727,6.5039z" fill="#111" />
    <path id="l" d="m486.39,525.65,0-7.6641,9.8438,0,0-79.453c-0.00001-1.7812-0.91408-2.8944-2.7422-3.3398-1.8281-0.44522-4.1953-0.66787-7.1016-0.66796v-7.6641l26.367-1.125v92.25h9.7734v7.6641z" fill="#111" />
    <path id="e" d="m531.25,493.24c-0.00001-6.8437,1.6172-12.75,4.8516-17.719,3.2344-4.9687,7.6523-8.7304,13.254-11.285,5.6015-2.5546,11.754-3.832,18.457-3.832,10.172,0.00006,18.035,2.6602,23.59,7.9805,5.5546,5.3204,8.332,13.043,8.332,23.168-0.00007,1.7813-0.84382,2.836-2.5312,3.1641h-46.266c-0.00003,5.2032,0.6445,9.6211,1.9336,13.254,1.289,3.6328,3.4922,6.5039,6.6094,8.6133s7.2773,3.1641,12.48,3.1641c2.8125,0,5.5781-0.43359,8.2969-1.3008,2.7187-0.86717,5.1445-2.2148,7.2773-4.043,2.1328-1.8281,3.6679-4.0312,4.6055-6.6094,0.37494-1.1718,1.1952-1.7578,2.4609-1.7578h2.6016c0.70306,0.00002,1.3007,0.30471,1.793,0.91406,0.49212,0.60939,0.73821,1.2656,0.73828,1.9688-0.00007,0.28127-0.0118,0.4922-0.0351,0.63281-0.0235,0.14064-0.0587,0.28127-0.10547,0.42188-1.3126,3.7031-3.5157,6.8086-6.6094,9.3164-3.0938,2.5078-6.6212,4.3359-10.582,5.4844-3.961,1.1484-8.004,1.7227-12.129,1.7227-5.1094,0-10.008-0.67969-14.695-2.0391-4.6875-1.3594-8.8594-3.4453-12.516-6.2578-3.6563-2.8125-6.5391-6.3398-8.6484-10.582-2.1094-4.2422-3.1641-9.0351-3.1641-14.379zm19.688-4.2891,34.172,0c-0.00006-3.9375-0.57427-7.6054-1.7226-11.004-1.1485-3.3984-3.0118-6.1406-5.5898-8.2266-2.5782-2.0859-5.9063-3.1288-9.9844-3.1289-5.9532,0.00006-10.254,2.1212-12.902,6.3633-2.6485,4.2422-3.9727,9.5743-3.9726,15.996z" fill="#111" />
  </g>
</svg>
